<svg width="16" height="11" viewBox="0 0 16 11" fill="none" xmlns="http://www.w3.org/2000/svg">
<path d="M0.692634 4.34758H13.6354L10.5471 1.20355C10.2765 0.928296 10.2765 0.481779 10.5471 0.206564C10.8176 -0.0688547 11.2562 -0.0688547 11.5264 0.206564L15.7971 4.55406C16.0676 4.82931 16.0676 5.27587 15.7971 5.55105L11.5264 9.89874C11.3912 10.0365 11.2139 10.1053 11.0367 10.1053C10.8595 10.1053 10.6823 10.0365 10.5471 9.89874C10.2765 9.62349 10.2765 9.17697 10.5471 8.90179L13.6354 5.75761H0.692634C0.310157 5.75761 0 5.44192 0 5.05257C0 4.66322 0.310117 4.34758 0.692634 4.34758Z" fill="black"/>
</svg>
