<svg width="56" height="55" viewBox="0 0 56 55" fill="none" xmlns="http://www.w3.org/2000/svg">
<path d="M55.2573 27.3699V20.245H43.5903C43.8575 19.9778 44.1247 19.7106 44.3028 19.3544H45.9059C48.1324 19.3544 49.9137 17.5732 49.9137 15.3466C49.9137 13.1201 48.1324 11.3389 45.9059 11.3389H45.4606H44.57H32.9921V15.7919C32.9921 17.5732 33.7045 19.0872 34.8623 20.245H24.9766V27.3699H26.7578V25.5887H28.0046L29.7859 29.1511H31.2108V51.4164C31.2108 52.3961 30.4093 53.1976 29.4296 53.1976C28.4499 53.1976 27.6484 52.3961 27.6484 51.4164H25.8672C25.8672 53.3757 27.4703 54.9788 29.4296 54.9788C31.389 54.9788 32.9921 53.3757 32.9921 51.4164V38.9478H47.2418V51.4164C47.2418 53.3757 48.8449 54.9788 50.8043 54.9788C52.7636 54.9788 54.3667 53.3757 54.3667 51.4164H52.5855C52.5855 52.3961 51.7839 53.1976 50.8043 53.1976C49.8246 53.1976 49.023 52.3961 49.023 51.4164V29.1511H50.448L52.2292 25.5887H53.4761V27.3699H55.2573ZM45.9059 13.1201C47.1528 13.1201 48.1324 14.0998 48.1324 15.3466C48.1324 16.5935 47.1528 17.5732 45.9059 17.5732H45.1934C45.3715 17.0388 45.4606 16.4154 45.4606 15.7919V13.1201H45.9059ZM34.7733 15.7919V13.1201H43.6794V15.7919C43.6794 18.2856 41.72 20.245 39.2263 20.245C36.7326 20.245 34.7733 18.2856 34.7733 15.7919ZM32.9921 37.1666V35.3854H47.2418V37.1666H32.9921ZM47.2418 33.6042H32.9921V29.1511H47.2418V33.6042ZM49.3793 27.3699H30.8546L29.964 25.5887H50.2699L49.3793 27.3699ZM26.7578 23.8074V22.0262H53.4761V23.8074H26.7578Z" fill="#8A8CDC"/>
<path d="M21.4098 52.307C21.4098 52.8414 21.0536 53.1976 20.5192 53.1976C19.9848 53.1976 19.6286 52.8414 19.6286 52.307V38.0572H20.5192C21.4989 38.0572 22.3004 37.2557 22.3004 36.276V34.4948C22.3004 33.5151 21.4989 32.7135 20.5192 32.7135H6.26943L5.37882 14.0107C5.37882 12.4967 4.22103 11.3389 2.70699 11.3389C1.19295 11.3389 0.0351562 12.4967 0.0351562 14.0107V14.9013H1.81638V14.0107C1.81638 13.4763 2.17262 13.1201 2.70699 13.1201C3.24136 13.1201 3.5976 13.4763 3.5976 14.0107L4.48821 33.6042V38.0572H6.26943V52.307C6.26943 52.8414 5.91319 53.1976 5.37882 53.1976C4.84446 53.1976 4.48821 52.8414 4.48821 52.307V51.4164H2.70699V52.307C2.70699 53.821 3.86478 54.9788 5.37882 54.9788C6.89286 54.9788 8.05066 53.821 8.05066 52.307V38.0572H17.8474V52.307C17.8474 53.821 19.0052 54.9788 20.5192 54.9788C22.0332 54.9788 23.191 53.821 23.191 52.307V51.4164H21.4098V52.307ZM6.26943 34.4948H20.5192V36.276H6.26943V34.4948Z" fill="#8A8CDC"/>
<path d="M35.6787 4.74758C35.1443 5.28195 34.7881 6.0835 34.7881 6.88505C34.7881 7.6866 35.1443 8.48815 35.6787 9.02252L36.8365 10.1803L38.0833 8.93346L36.9256 7.77566C36.6584 7.50848 36.5693 7.24129 36.5693 6.88505C36.5693 6.52881 36.6584 6.26162 36.9256 5.99444L37.4599 5.46007C37.9943 4.92571 38.3505 4.12416 38.3505 3.32261C38.3505 2.52106 37.9943 1.71951 37.4599 1.18514L36.3021 0.0273438L35.0553 1.2742L36.2131 2.43199C36.4802 2.69918 36.5693 2.96636 36.5693 3.32261C36.5693 3.67885 36.4802 3.94603 36.2131 4.21322L35.6787 4.74758Z" fill="#8A8CDC"/>
<path d="M41.0039 4.74758C40.4695 5.28195 40.1133 6.0835 40.1133 6.88505C40.1133 7.6866 40.4695 8.48815 41.0039 9.02252L42.1617 10.1803L43.4085 8.93346L42.2507 7.77566C41.9836 7.50848 41.8945 7.24129 41.8945 6.88505C41.8945 6.52881 41.9836 6.26162 42.2507 5.99444L42.7851 5.46007C43.3195 4.92571 43.6757 4.12416 43.6757 3.32261C43.6757 2.52106 43.3195 1.71951 42.7851 1.18514L41.6273 0.0273438L40.3805 1.2742L41.5383 2.43199C41.8054 2.69918 41.8945 2.96636 41.8945 3.32261C41.8945 3.67885 41.8054 3.94603 41.5383 4.21322L41.0039 4.74758Z" fill="#8A8CDC"/>
</svg>
