<svg width="44" height="60" viewBox="0 0 44 60" fill="none" xmlns="http://www.w3.org/2000/svg">
<path d="M2.21529 56.0948L3.05144 58.495C3.20346 58.9596 3.73556 59.1918 4.64772 59.1918H39.3098C40.222 59.1918 40.7541 58.9596 40.9061 58.495L41.7423 56.0948C42.8825 56.0948 43.8706 55.0883 43.8706 53.9269V52.843C43.8706 51.6816 42.8825 50.6751 41.7423 50.6751H40.6781V28.1445C40.6781 27.6799 40.374 27.3702 39.9179 27.3702H38.0936V12.3498C38.0936 11.8852 37.7896 11.5755 37.3335 11.5755H31.9365V1.58773C31.9365 1.12318 31.6325 0.813477 31.1764 0.813477H12.7812C12.3251 0.813477 12.021 1.12318 12.021 1.58773V11.5755H6.62407C6.16799 11.5755 5.86393 11.8852 5.86393 12.3498V27.4476H4.03961C3.58353 27.4476 3.27948 27.7573 3.27948 28.2219V50.7525H2.21529C1.07509 50.7525 0.0869141 51.759 0.0869141 52.9204V53.9269C0.162927 55.0883 1.07509 56.0948 2.21529 56.0948ZM39.3859 57.6433H4.64772C4.57171 57.6433 4.41968 57.6433 4.34367 57.6433L3.81157 56.0948H40.146L39.6139 57.6433C39.5379 57.6433 39.4619 57.6433 39.3859 57.6433ZM32.7727 40.8421C32.3166 40.8421 32.0126 41.1518 32.0126 41.6164C32.0126 43.2423 30.7203 44.4811 29.2001 44.4811C27.6038 44.4811 26.3876 43.1649 26.3876 41.6164C26.3876 41.1518 26.0835 40.8421 25.6274 40.8421C25.1713 40.8421 24.8673 41.1518 24.8673 41.6164C24.8673 43.2423 23.5751 44.4811 22.0548 44.4811C20.5345 44.4811 19.2423 43.1649 19.2423 41.6164C19.2423 41.1518 18.9382 40.8421 18.4822 40.8421C18.0261 40.8421 17.722 41.1518 17.722 41.6164C17.722 43.2423 16.4298 44.4811 14.9095 44.4811C13.3133 44.4811 12.097 43.1649 12.097 41.6164C12.097 41.1518 11.793 40.8421 11.3369 40.8421C10.8808 40.8421 10.5768 41.1518 10.5768 41.6164C10.5768 43.2423 9.28454 44.4811 7.76427 44.4811C6.16799 44.4811 4.95177 43.1649 4.95177 41.6164V37.4354C5.71191 38.1323 6.70008 38.5194 7.76427 38.5194C9.28454 38.5194 10.5768 37.7451 11.3369 36.5838C12.097 37.7451 13.4653 38.5194 14.9095 38.5194C16.4298 38.5194 17.722 37.7451 18.4822 36.5838C19.2423 37.7451 20.6105 38.5194 22.0548 38.5194C23.4991 38.5194 24.8673 37.7451 25.6274 36.5838C26.3876 37.7451 27.7558 38.5194 29.2001 38.5194C30.7203 38.5194 32.0126 37.7451 32.7727 36.5838C33.5328 37.7451 34.9011 38.5194 36.3453 38.5194C37.4095 38.5194 38.3977 38.1323 39.1578 37.4354V41.6938C39.1578 43.3197 37.8656 44.5585 36.3453 44.5585C34.749 44.5585 33.5328 43.2423 33.5328 41.6938C33.5328 41.2293 33.2288 40.8421 32.7727 40.8421ZM30.4923 2.36197V5.61382C30.4923 6.93004 29.4281 7.93657 28.2119 7.93657C26.9957 7.93657 25.9315 6.85262 25.9315 5.61382C25.9315 5.14927 25.6274 4.83957 25.1713 4.83957C24.7153 4.83957 24.4112 5.14927 24.4112 5.61382C24.4112 6.93004 23.347 7.93657 22.1308 7.93657C20.8386 7.93657 19.8504 6.85262 19.8504 5.61382C19.8504 5.14927 19.5464 4.83957 19.0903 4.83957C18.6342 4.83957 18.3301 5.14927 18.3301 5.61382C18.3301 6.93004 17.266 7.93657 16.0497 7.93657C14.8335 7.93657 13.7693 6.85262 13.7693 5.61382V2.36197H30.4923ZM13.5413 8.71081C14.1494 9.25279 14.9855 9.56249 15.8217 9.56249C17.1139 9.56249 18.1781 8.94309 18.8622 7.93657C19.5464 8.86566 20.6866 9.56249 21.9028 9.56249C23.195 9.56249 24.2592 8.94309 24.9433 7.93657C25.6274 8.86566 26.7676 9.56249 27.9838 9.56249C28.82 9.56249 29.6561 9.25279 30.2642 8.78824V11.653H13.5413V8.71081ZM36.5734 13.124V18.9309C36.5734 20.2471 35.5092 21.2536 34.293 21.2536C33.0767 21.2536 32.0126 20.1697 32.0126 18.9309C32.0126 18.4663 31.7085 18.1566 31.2524 18.1566C30.7963 18.1566 30.4923 18.4663 30.4923 18.9309C30.4923 20.2471 29.4281 21.2536 28.2119 21.2536C26.9957 21.2536 25.9315 20.1697 25.9315 18.9309C25.9315 18.4663 25.6274 18.1566 25.1713 18.1566C24.7153 18.1566 24.4112 18.4663 24.4112 18.9309C24.4112 20.2471 23.347 21.2536 22.1308 21.2536C20.8386 21.2536 19.8504 20.1697 19.8504 18.9309C19.8504 18.4663 19.5464 18.1566 19.0903 18.1566C18.6342 18.1566 18.3301 18.4663 18.3301 18.9309C18.3301 20.2471 17.266 21.2536 16.0497 21.2536C14.8335 21.2536 13.7693 20.1697 13.7693 18.9309C13.7693 18.4663 13.4653 18.1566 13.0092 18.1566C12.5531 18.1566 12.2491 18.4663 12.2491 18.9309C12.2491 20.2471 11.1849 21.2536 9.96866 21.2536C8.75245 21.2536 7.68826 20.1697 7.68826 18.9309V13.2015H36.5734V13.124ZM7.46022 21.9505C8.06832 22.4924 8.90447 22.8021 9.74062 22.8021C11.0328 22.8021 12.097 22.1827 12.7812 21.1762C13.4653 22.1053 14.6055 22.8021 15.8217 22.8021C17.1139 22.8021 18.1781 22.1827 18.8622 21.1762C19.5464 22.1053 20.6866 22.8021 21.9028 22.8021C23.195 22.8021 24.2592 22.1827 24.9433 21.1762C25.6274 22.1053 26.7676 22.8021 27.9838 22.8021C29.2001 22.8021 30.3403 22.1827 31.0244 21.1762C31.7085 22.1053 32.8487 22.8021 34.0649 22.8021C34.9011 22.8021 35.7372 22.4924 36.3453 22.0279V27.4476H7.46022V21.9505ZM39.2338 28.9187V34.0288C39.2338 35.6547 37.9416 36.8935 36.4213 36.8935C34.825 36.8935 33.6088 35.5772 33.6088 34.0288C33.6088 33.5642 33.3048 33.2545 32.8487 33.2545C32.3926 33.2545 32.0886 33.5642 32.0886 34.0288C32.0886 35.6547 30.7963 36.8935 29.2761 36.8935C27.6798 36.8935 26.4636 35.5772 26.4636 34.0288C26.4636 33.5642 26.1595 33.2545 25.7034 33.2545C25.2474 33.2545 24.9433 33.5642 24.9433 34.0288C24.9433 35.6547 23.6511 36.8935 22.1308 36.8935C20.6105 36.8935 19.3183 35.5772 19.3183 34.0288C19.3183 33.5642 19.0143 33.2545 18.5582 33.2545C18.1021 33.2545 17.798 33.5642 17.798 34.0288C17.798 35.6547 16.5058 36.8935 14.9855 36.8935C13.3893 36.8935 12.173 35.5772 12.173 34.0288C12.173 33.5642 11.869 33.2545 11.4129 33.2545C10.9568 33.2545 10.6528 33.5642 10.6528 34.0288C10.6528 35.6547 9.36055 36.8935 7.84028 36.8935C6.244 36.8935 5.02779 35.5772 5.02779 34.0288V28.9961H39.2338V28.9187ZM4.79975 44.9457C5.55988 45.6425 6.54806 46.0296 7.61224 46.0296C9.13251 46.0296 10.4247 45.2554 11.1849 44.094C11.945 45.2554 13.3133 46.0296 14.7575 46.0296C16.2778 46.0296 17.57 45.2554 18.3301 44.094C19.0903 45.2554 20.4585 46.0296 21.9028 46.0296C23.347 46.0296 24.7153 45.2554 25.4754 44.094C26.2355 45.2554 27.6038 46.0296 29.048 46.0296C30.5683 46.0296 31.8605 45.2554 32.6207 44.094C33.3808 45.2554 34.749 46.0296 36.1933 46.0296C37.2575 46.0296 38.2457 45.6425 39.0058 44.9457V50.6751H4.79975V44.9457ZM1.6832 52.9204C1.6832 52.6107 1.98725 52.301 2.2913 52.301H41.8183C42.1223 52.301 42.4264 52.6107 42.4264 52.9204V53.9269C42.4264 54.2366 42.1223 54.5463 41.8183 54.5463H2.2913C1.98725 54.5463 1.6832 54.2366 1.6832 53.9269V52.9204Z" fill="#E58383"/>
</svg>
