<svg width="46" height="51" viewBox="0 0 46 51" fill="none" xmlns="http://www.w3.org/2000/svg">
<path d="M36.3021 22.9813V18.1515H42.8007C44.5383 18.1515 45.9519 16.7379 45.9519 15.0004V3.61306C45.9519 1.87551 44.5383 0.461914 42.8007 0.461914H7.34299C3.79918 0.461914 0.913086 3.34801 0.913086 6.89182V50.3305H45.9519V42.2907H37.0187C38.0691 41.2697 38.717 39.8463 38.717 38.2658V37.4609H41.1319C42.467 37.4609 43.5468 36.381 43.5468 35.046V30.2162C43.5468 28.8811 42.467 27.8013 41.1319 27.8013H38.717V25.3962H21.0176V38.2658C21.0176 39.8365 21.6655 41.2599 22.7159 42.2907H15.3926V18.1613H23.4325V22.9911H28.2623V18.1613H31.4821V22.9911H36.3021V22.9813ZM34.6922 21.3714H33.0822V18.1515H34.6922V21.3714ZM41.1319 29.421C41.5736 29.421 41.9369 29.7843 41.9369 30.226V35.0558C41.9369 35.4975 41.5736 35.8608 41.1319 35.8608H38.717V29.421H41.1319ZM22.6275 38.2658V27.0061H37.1071V27.8111V37.4609V38.2658C37.1071 40.4844 35.3008 42.2907 33.0822 42.2907H26.6523C24.4338 42.2907 22.6275 40.4844 22.6275 38.2658ZM26.6523 21.3714H25.0424V18.1515H26.6523V21.3714ZM28.2623 16.5514H23.4325H13.7827V43.9006H26.6523H33.0822H44.3419V48.7304H2.52302V6.89182C2.52302 4.23151 4.68268 2.07184 7.34299 2.07184H42.8007C43.6548 2.07184 44.3419 2.76883 44.3419 3.61306V15.0004C44.3419 15.8544 43.645 16.5514 42.8007 16.5514H36.3021H31.4723H28.2623Z" fill="#CC9180"/>
</svg>
