<svg width="49" height="45" viewBox="0 0 49 45" fill="none" xmlns="http://www.w3.org/2000/svg">
<path d="M1.35592 0.758825C0.745119 0.758825 0.25 1.26146 0.25 1.88149C0.25 2.50151 0.745119 3.00415 1.35592 3.00415H7.09286L12.9162 30.9654C12.8568 31.605 13.4419 32.2255 14.074 32.1933H41.7219C42.3062 32.2017 42.8436 31.6638 42.8436 31.0706C42.8436 30.4774 42.3062 29.9396 41.7219 29.9479H14.9725L14.0394 25.4574H43.9337C44.4289 25.4518 44.8968 25.0708 45.0051 24.5803L48.8758 7.74037C49.0196 7.08882 48.4622 6.3769 47.8044 6.37212H10.065L9.08009 1.6359C8.97049 1.1397 8.49234 0.754486 7.99142 0.758825H1.35592ZM10.5316 8.61744H46.422L43.0524 23.2121H13.5729L10.5316 8.61744ZM19.6036 34.4386C16.8682 34.4386 14.6269 36.7137 14.6269 39.4906C14.6269 42.2674 16.8682 44.5425 19.6036 44.5425C22.339 44.5425 24.5802 42.2674 24.5802 39.4906C24.5802 36.7138 22.339 34.4386 19.6036 34.4386ZM36.1923 34.4386C33.4569 34.4386 31.2157 36.7137 31.2157 39.4906C31.2157 42.2674 33.4569 44.5425 36.1923 44.5425C38.9277 44.5425 41.1689 42.2674 41.1689 39.4906C41.1689 36.7138 38.9277 34.4386 36.1923 34.4386ZM19.6036 36.6839C21.1436 36.6839 22.3683 37.9272 22.3683 39.4906C22.3683 41.054 21.1436 42.2972 19.6036 42.2972C18.0636 42.2972 16.8388 41.0539 16.8388 39.4906C16.8388 37.9272 18.0636 36.6839 19.6036 36.6839ZM36.1923 36.6839C37.7324 36.6839 38.9571 37.9272 38.9571 39.4906C38.9571 41.054 37.7324 42.2972 36.1923 42.2972C34.6523 42.2972 33.4275 41.0539 33.4275 39.4906C33.4275 37.9272 34.6523 36.6839 36.1923 36.6839Z" fill="#D17EAC"/>
</svg>
