<svg width="55" height="52" viewBox="0 0 55 52" fill="none" xmlns="http://www.w3.org/2000/svg">
<path d="M52.5199 36.3677C51.7665 32.4128 48.2825 29.5879 44.2334 29.5879H37.6419C33.5929 29.5879 30.1088 32.507 29.3555 36.3677C28.3197 36.6502 27.5664 37.5918 27.5664 38.7218C27.5664 39.3809 27.8489 39.9459 28.2256 40.4167C27.8489 40.8876 27.5664 41.4525 27.5664 42.1117C27.5664 43.2417 28.3197 44.1833 29.3555 44.4658C30.1088 48.4207 33.5929 51.2456 37.6419 51.2456H44.2334C48.2825 51.2456 51.7665 48.3265 52.5199 44.4658C53.5557 44.1833 54.309 43.2417 54.309 42.1117C54.309 41.4525 54.0265 40.8876 53.6498 40.4167C54.0265 39.9459 54.309 39.3809 54.309 38.7218C54.309 37.686 53.5557 36.6502 52.5199 36.3677ZM37.6419 31.2828H44.2334C47.3408 31.2828 49.9774 33.3544 50.8249 36.2735H50.5424L50.3541 36.0852C49.8833 35.6144 49.3183 35.426 48.7533 35.426H48.2825C47.7175 35.426 47.1525 35.6144 46.6817 36.0852C46.5875 36.1794 46.3992 36.2735 46.305 36.2735H45.8342C45.6459 36.2735 45.5517 36.1794 45.4576 36.0852C44.9867 35.6144 44.4218 35.426 43.8568 35.426H43.3859C42.821 35.426 42.256 35.6144 41.7852 36.0852C41.691 36.1794 41.5027 36.2735 41.4085 36.2735H40.9377C40.7494 36.2735 40.6552 36.1794 40.561 36.0852C40.0902 35.6144 39.5252 35.426 38.9602 35.426H38.4894C37.9244 35.426 37.3595 35.6144 36.8886 36.0852C36.7945 36.1794 36.6061 36.2735 36.512 36.2735H36.0412C35.8528 36.2735 35.7587 36.1794 35.6645 36.0852C35.1937 35.6144 34.6287 35.426 34.0637 35.426H33.5929C33.0279 35.426 32.4629 35.6144 31.9921 36.0852L31.4271 36.2735H31.1446C31.8979 33.3544 34.5345 31.2828 37.6419 31.2828ZM30.1088 37.9685H32.0863L32.7454 37.3093C32.8396 37.2152 33.0279 37.121 33.1221 37.121H33.5929C33.7812 37.121 33.8754 37.2152 33.9696 37.3093C34.4404 37.7801 35.0054 37.9685 35.5703 37.9685H36.1353C36.7003 37.9685 37.2653 37.7801 37.7361 37.3093C37.8303 37.2152 38.0186 37.121 38.1128 37.121H38.5836C38.7719 37.121 38.8661 37.2152 38.9602 37.3093C39.4311 37.7801 39.996 37.9685 40.561 37.9685H41.0318C41.5968 37.9685 42.1618 37.7801 42.6326 37.3093C42.7268 37.2152 42.9151 37.121 43.0093 37.121H43.6684C43.8568 37.121 43.9509 37.2152 44.0451 37.3093C44.5159 37.7801 45.0809 37.9685 45.6459 37.9685H46.1167C46.6817 37.9685 47.2467 37.7801 47.7175 37.3093C47.8117 37.2152 48 37.121 48.0941 37.121H48.565C48.7533 37.121 48.8475 37.2152 48.9416 37.3093L49.6008 37.9685H51.5782C52.049 37.9685 52.4257 38.3451 52.4257 38.8159C52.4257 39.2868 52.049 39.6634 51.5782 39.6634H30.1088C29.638 39.6634 29.2614 39.2868 29.2614 38.8159C29.2614 38.3451 29.638 37.9685 30.1088 37.9685ZM44.2334 49.6448H37.6419C34.5345 49.6448 31.8979 47.5732 31.0505 44.6541H50.7307C49.9774 47.5732 47.3408 49.6448 44.2334 49.6448ZM51.7665 42.9592H30.1088C29.638 42.9592 29.2614 42.5825 29.2614 42.1117C29.2614 41.6409 29.638 41.2642 30.1088 41.2642H51.8607C52.3315 41.2642 52.7082 41.6409 52.7082 42.1117C52.614 42.5825 52.2374 42.9592 51.7665 42.9592Z" fill="#57B6BB"/>
<path d="M28.4085 44.8826H25.0186V20.5968H36.0358V28.7805C36.3182 28.7805 36.6007 28.7805 36.8832 28.7805C37.2599 28.7805 37.5424 28.7806 37.8249 28.8747V20.691H39.614C40.0848 20.691 40.5556 20.2202 40.5556 19.7494V11.3687C40.5556 10.8979 40.0848 10.4271 39.614 10.4271H29.1618C30.0093 9.48547 30.5743 8.16715 30.5743 6.7547C30.5743 3.74145 28.126 1.2932 25.1127 1.2932C23.3236 1.2932 21.7229 2.14066 20.7812 3.45896C19.7454 1.57568 17.768 0.351562 15.508 0.351562C12.2123 0.351562 9.57571 2.98814 9.57571 6.28388C9.57571 7.88466 10.2349 9.29714 11.2707 10.4271H1.28929C0.818475 10.4271 0.347656 10.8979 0.347656 11.3687V19.561C0.347656 20.0318 0.818475 20.5027 1.28929 20.5027H3.07841V45.73C3.07841 46.2008 3.54923 46.6717 4.02005 46.6717H29.0676C28.7851 46.1067 28.5968 45.5417 28.4085 44.8826ZM38.7665 12.3104V18.7135H25.0186V12.3104H38.7665ZM21.4404 6.84889C21.4404 4.77729 23.0411 3.17648 25.1127 3.17648C27.1844 3.17648 28.7851 4.77729 28.7851 6.84889C28.7851 8.9205 27.1844 10.5213 25.1127 10.5213H21.4404V6.84889ZM15.4139 2.23484C17.6738 2.23484 19.5571 4.02398 19.5571 6.37807V10.5213H15.4139C13.1539 10.5213 11.2707 8.73217 11.2707 6.37807C11.3648 4.11814 13.1539 2.23484 15.4139 2.23484ZM15.8847 44.8826H4.96168V20.5968H15.9789V44.8826H15.8847ZM15.8847 18.7135H2.13677V12.3104H15.8847V18.7135ZM23.2295 44.8826H17.768V20.5968H23.2295V44.8826ZM23.2295 18.7135H17.768V12.3104H23.2295V18.7135Z" fill="#57B6BB"/>
</svg>
