<svg width="45" height="39" viewBox="0 0 45 39" fill="none" xmlns="http://www.w3.org/2000/svg">
<g clip-path="url(#clip0_409_68)">
<path d="M32.873 15.3968C32.1934 11.8436 29.0505 9.30566 25.398 9.30566H19.452C15.7994 9.30566 12.6565 11.9282 11.977 15.3968C11.0426 15.6506 10.363 16.4966 10.363 17.5117C10.363 18.1039 10.6179 18.6115 10.9576 19.0345C10.6179 19.4575 10.363 19.9651 10.363 20.5573C10.363 21.5725 11.0426 22.4185 11.977 22.6723C12.6565 26.2254 15.7994 28.7634 19.452 28.7634H25.398C29.0505 28.7634 32.1934 26.1408 32.873 22.6723C33.8074 22.4185 34.4869 21.5725 34.4869 20.5573C34.4869 19.9651 34.2321 19.4575 33.8923 19.0345C34.2321 18.6115 34.4869 18.1039 34.4869 17.5117C34.4869 16.4966 33.8074 15.6506 32.873 15.3968ZM19.452 10.7438H25.398C28.2011 10.7438 30.5795 12.605 31.344 15.2276H31.0892L30.9193 15.0584C30.4946 14.6354 29.9849 14.4662 29.4753 14.4662H29.0505C28.5409 14.4662 28.0312 14.6354 27.6065 15.0584C27.5216 15.143 27.3517 15.2276 27.2667 15.2276H26.842C26.6721 15.2276 26.5872 15.143 26.5022 15.0584C26.0775 14.6354 25.5679 14.4662 25.0582 14.4662H24.6335C24.1238 14.4662 23.6142 14.6354 23.1895 15.0584C23.1045 15.143 22.9346 15.2276 22.8497 15.2276H22.425C22.2551 15.2276 22.1701 15.143 22.0852 15.0584C21.6605 14.6354 21.1508 14.4662 20.6412 14.4662H20.2164C19.7068 14.4662 19.1971 14.6354 18.7724 15.0584C18.6875 15.143 18.5176 15.2276 18.4326 15.2276H18.0079C17.838 15.2276 17.7531 15.143 17.6682 15.0584C17.2434 14.6354 16.7338 14.4662 16.2241 14.4662H15.7994C15.2897 14.4662 14.7801 14.6354 14.3554 15.0584L14.1855 15.2276H13.5909C14.2704 12.6896 16.6488 10.7438 19.452 10.7438ZM12.6565 16.7503H14.4403L15.0349 16.1582C15.1199 16.0736 15.2897 16.0736 15.4596 16.0736H15.8843C16.0542 16.0736 16.1392 16.1582 16.2241 16.2428C16.6488 16.6658 17.1585 16.8349 17.6682 16.8349H18.0929C18.6025 16.8349 19.1122 16.6658 19.5369 16.2428C19.6218 16.1582 19.7917 16.0736 19.8767 16.0736H20.3863C20.5562 16.0736 20.6412 16.1582 20.7261 16.2428C21.1508 16.6658 21.6605 16.8349 22.1701 16.8349H22.5949C23.1045 16.8349 23.6142 16.6658 24.0389 16.2428C24.1238 16.1582 24.2937 16.0736 24.3787 16.0736H24.8034C24.9733 16.0736 25.0582 16.1582 25.1432 16.2428C25.5679 16.6658 26.0775 16.8349 26.5872 16.8349H27.1818C27.6914 16.8349 28.2011 16.6658 28.6258 16.2428C28.7108 16.0736 28.8806 16.0736 28.9656 16.0736H29.3903C29.5602 16.0736 29.6451 16.1582 29.7301 16.2428L30.3247 16.8349H32.2784C32.7031 16.8349 33.0429 17.1733 33.0429 17.5963C33.0429 18.0193 32.7031 18.3577 32.2784 18.3577H12.6565C12.2318 18.3577 11.892 18.0193 11.892 17.5963C11.892 17.1733 12.2318 16.7503 12.6565 16.7503ZM25.398 27.3252H19.452C16.6488 27.3252 14.2704 25.464 13.5059 22.8415H31.2591C30.5795 25.3794 28.2011 27.3252 25.398 27.3252ZM32.2784 21.3187H12.6565C12.2318 21.3187 11.892 20.9803 11.892 20.5573C11.892 20.1343 12.2318 19.7959 12.6565 19.7959H32.2784C32.7031 19.7959 33.0429 20.1343 33.0429 20.5573C33.0429 20.9803 32.6182 21.3187 32.2784 21.3187Z" fill="#4E9DD3"/>
<path d="M10.3621 1.69197C15.7984 1.69197 20.98 6.7679 21.2348 7.02169C21.5746 7.36009 21.9993 7.44469 22.3391 7.44469C22.6788 7.44469 23.1035 7.27549 23.4433 7.02169C23.5283 7.02169 26.0766 4.48373 29.5592 2.96095C31.343 2.19957 32.9569 1.77657 34.4859 1.77657C36.6944 1.77657 38.6481 2.62256 40.347 4.31453C42.4706 6.3449 43.32 8.79826 43.0652 11.59C42.1308 21.9111 26.2464 34.0933 22.3391 36.9696C20.6402 35.7007 16.7328 32.7397 12.7405 28.9328C6.02996 22.2495 2.20752 16.3275 1.69786 11.5054C1.52797 8.71367 2.3774 6.3449 4.41604 4.22994C6.28479 2.36876 8.40837 1.69197 10.3621 1.69197ZM10.3621 0C7.64388 0 5.26547 1.01518 3.22683 3.04555C0.763482 5.58351 -0.255836 8.37527 -0.00100627 11.6746C0.508653 16.9197 4.41604 23.0954 11.6362 30.0325C15.7984 34.0087 19.8757 37.1388 21.4047 38.2386L22.424 39L23.4433 38.2386C28.2001 34.7701 43.8297 22.5879 44.849 11.6746C45.1888 8.29067 44.0845 5.41432 41.6212 3.04555C39.5825 1.01518 37.2041 0 34.4859 0C32.7021 0 30.8334 0.422994 28.8797 1.35358C26.841 2.28416 24.8024 3.55315 22.8487 5.32972H22.7638L22.3391 5.75271C21.5746 4.90672 16.2231 0 10.3621 0Z" fill="#4E9DD3"/>
</g>
<defs>
<clipPath id="clip0_409_68">
<rect width="44.85" height="39" fill="white"/>
</clipPath>
</defs>
</svg>
