<svg width="46" height="53" viewBox="0 0 46 53" fill="none" xmlns="http://www.w3.org/2000/svg">
<path d="M6.87094 3.87985L6.87154 3.87805L6.87334 3.87985L6.63508 5.00758L6.39681 6.1353L7.38949 5.54954L8.4434 4.93676L9.4985 5.54954L10.4912 6.1353L10.2529 5.00758L10.0146 3.87985L10.0159 3.87865L10.0164 3.87985L10.8447 3.07862L11.6735 2.27739L10.523 2.20717L9.37246 2.13635L8.90793 1.08185L8.4434 0.0273438L7.97886 1.08185L7.51433 2.13635L7.51013 2.14836L7.51433 2.13635L6.3644 2.20717L5.21387 2.27739L6.04271 3.07862L6.87094 3.87985Z" fill="#92C2D6"/>
<path d="M14.161 3.87985L14.1616 3.87805L14.1634 3.87985L13.9251 5.00758L13.6868 6.1353L14.6795 5.54954L15.7334 4.93676L16.7885 5.54954L17.7812 6.1353L17.543 5.00758L17.3047 3.87985L17.3059 3.87865L17.3065 3.87985L18.1347 3.07862L18.9636 2.27739L17.813 2.20717L16.6625 2.13635L16.198 1.08185L15.7334 0.0273438L15.2689 1.08185L14.8044 2.13635L14.8002 2.14836L14.8044 2.13635L13.6544 2.20717L12.5039 2.27739L13.3327 3.07862L14.161 3.87985Z" fill="#92C2D6"/>
<path d="M21.409 3.87985L21.4096 3.87805L21.4114 3.87985L21.1732 5.00758L20.9349 6.1353L21.9276 5.54954L22.9815 4.93676L24.0366 5.54954L25.0293 6.1353L24.791 5.00758L24.5527 3.87985L24.5539 3.87865L24.5545 3.87985L25.3828 3.07862L26.2116 2.27739L25.0611 2.20717L23.9105 2.13635L23.446 1.08185L22.9815 0.0273438L22.5169 1.08185L22.0524 2.13635L22.0482 2.14836L22.0524 2.13635L20.9025 2.20717L19.752 2.27739L20.5808 3.07862L21.409 3.87985Z" fill="#92C2D6"/>
<path d="M28.7665 3.87985L28.7671 3.87805L28.7689 3.87985L28.5306 5.00758L28.2923 6.1353L29.285 5.54954L30.3395 4.93676L31.394 5.54954L32.3867 6.1353L32.1484 5.00758L31.9102 3.87985L31.9114 3.87865L31.912 3.87985L32.7402 3.07862L33.569 2.27739L32.4185 2.20717L31.2686 2.13635L30.804 1.08185L30.3395 0.0273438L29.875 1.08185L29.4104 2.13635L29.4056 2.14836L29.4104 2.13635L28.2599 2.20717L27.1094 2.27739L27.9382 3.07862L28.7665 3.87985Z" fill="#92C2D6"/>
<path d="M36.0164 3.87985L36.0171 3.87805L36.0189 3.87985L35.7806 5.00758L35.5423 6.1353L36.535 5.54954L37.5895 4.93676L38.644 5.54954L39.6367 6.1353L39.3984 5.00758L39.1602 3.87985L39.1614 3.87865L39.162 3.87985L39.9902 3.07862L40.819 2.27739L39.6685 2.20717L38.5186 2.13635L38.054 1.08185L37.5895 0.0273438L37.125 1.08185L36.6604 2.13635L35.5099 2.20717L34.3594 2.27739L35.1882 3.07862L36.0164 3.87985Z" fill="#92C2D6"/>
<path d="M45.1044 10.9222H43.5896V7.9735C43.5896 7.47596 43.1863 7.07324 42.6893 7.07324H3.372C2.87445 7.07324 2.47174 7.47596 2.47174 7.9735V10.9222H0.9569C0.459357 10.9222 0.0566406 11.3249 0.0566406 11.8224V51.4273C0.0566406 51.9242 0.459357 52.3275 0.9569 52.3275H19.7675H26.2938H45.105C45.602 52.3275 46.0053 51.9242 46.0053 51.4273V11.8224C46.0047 11.3249 45.6014 10.9222 45.1044 10.9222ZM4.27225 8.87376H41.7891V10.9222H4.27225V8.87376ZM25.3935 50.527H20.6678V40.8978H25.3935V50.527ZM44.2042 50.527H27.1941V39.9976C27.1941 39.5006 26.7907 39.0973 26.2938 39.0973H19.7675C19.27 39.0973 18.8673 39.5006 18.8673 39.9976V50.527H1.85716V12.7227H3.08091C3.17274 12.7545 3.26997 12.7749 3.3726 12.7749H42.6899C42.7925 12.7749 42.8898 12.7539 42.9816 12.7227H44.2054V50.527H44.2042Z" fill="#92C2D6"/>
<path d="M13.3299 14.9648H6.80358C6.30604 14.9648 5.90332 15.3676 5.90332 15.8651V20.0927C5.90332 20.5903 6.30604 20.993 6.80358 20.993H13.3299C13.8274 20.993 14.2301 20.5903 14.2301 20.0927V15.8651C14.2301 15.3676 13.8268 14.9648 13.3299 14.9648ZM12.4296 19.1925H7.70384V16.7654H12.4296V19.1925Z" fill="#92C2D6"/>
<path d="M26.2937 14.9648H19.7674C19.2699 14.9648 18.8672 15.3676 18.8672 15.8651V20.0927C18.8672 20.5903 19.2699 20.993 19.7674 20.993H26.2937C26.7907 20.993 27.194 20.5903 27.194 20.0927V15.8651C27.194 15.3676 26.7907 14.9648 26.2937 14.9648ZM25.3935 19.1925H20.6677V16.7654H25.3935V19.1925Z" fill="#92C2D6"/>
<path d="M39.2566 14.9648H32.7303C32.2334 14.9648 31.8301 15.3676 31.8301 15.8651V20.0927C31.8301 20.5903 32.2334 20.993 32.7303 20.993H39.2566C39.7536 20.993 40.1569 20.5903 40.1569 20.0927V15.8651C40.1569 15.3676 39.7536 14.9648 39.2566 14.9648ZM38.3564 19.1925H33.6306V16.7654H38.3564V19.1925Z" fill="#92C2D6"/>
<path d="M13.3299 23.0078H6.80358C6.30604 23.0078 5.90332 23.4105 5.90332 23.9081V28.1357C5.90332 28.6326 6.30604 29.0359 6.80358 29.0359H13.3299C13.8274 29.0359 14.2301 28.6326 14.2301 28.1357V23.9081C14.2301 23.4105 13.8268 23.0078 13.3299 23.0078ZM12.4296 27.2354H7.70384V24.8083H12.4296V27.2354Z" fill="#92C2D6"/>
<path d="M26.2937 23.0078H19.7674C19.2699 23.0078 18.8672 23.4105 18.8672 23.9081V28.1357C18.8672 28.6326 19.2699 29.0359 19.7674 29.0359H26.2937C26.7907 29.0359 27.194 28.6326 27.194 28.1357V23.9081C27.194 23.4105 26.7907 23.0078 26.2937 23.0078ZM25.3935 27.2354H20.6677V24.8083H25.3935V27.2354Z" fill="#92C2D6"/>
<path d="M39.2566 23.0078H32.7303C32.2334 23.0078 31.8301 23.4105 31.8301 23.9081V28.1357C31.8301 28.6326 32.2334 29.0359 32.7303 29.0359H39.2566C39.7536 29.0359 40.1569 28.6326 40.1569 28.1357V23.9081C40.1569 23.4105 39.7536 23.0078 39.2566 23.0078ZM38.3564 27.2354H33.6306V24.8083H38.3564V27.2354Z" fill="#92C2D6"/>
<path d="M13.3299 31.0508H6.80358C6.30604 31.0508 5.90332 31.4541 5.90332 31.951V36.1793C5.90332 36.6762 6.30604 37.0795 6.80358 37.0795H13.3299C13.8274 37.0795 14.2301 36.6762 14.2301 36.1793V31.951C14.2301 31.4541 13.8268 31.0508 13.3299 31.0508ZM12.4296 35.279H7.70384V32.8513H12.4296V35.279Z" fill="#92C2D6"/>
<path d="M26.2937 31.0508H19.7674C19.2699 31.0508 18.8672 31.4541 18.8672 31.951V36.1793C18.8672 36.6762 19.2699 37.0795 19.7674 37.0795H26.2937C26.7907 37.0795 27.194 36.6762 27.194 36.1793V31.951C27.194 31.4541 26.7907 31.0508 26.2937 31.0508ZM25.3935 35.279H20.6677V32.8513H25.3935V35.279Z" fill="#92C2D6"/>
<path d="M39.2566 31.0508H32.7303C32.2334 31.0508 31.8301 31.4541 31.8301 31.951V36.1793C31.8301 36.6762 32.2334 37.0795 32.7303 37.0795H39.2566C39.7536 37.0795 40.1569 36.6762 40.1569 36.1793V31.951C40.1569 31.4541 39.7536 31.0508 39.2566 31.0508ZM38.3564 35.279H33.6306V32.8513H38.3564V35.279Z" fill="#92C2D6"/>
<path d="M13.3299 39.0947H6.80358C6.30604 39.0947 5.90332 39.498 5.90332 39.995V44.2232C5.90332 44.7201 6.30604 45.1235 6.80358 45.1235H13.3299C13.8274 45.1235 14.2301 44.7201 14.2301 44.2232V39.995C14.2301 39.498 13.8268 39.0947 13.3299 39.0947ZM12.4296 43.3229H7.70384V40.8952H12.4296V43.3229Z" fill="#92C2D6"/>
<path d="M39.2566 39.0947H32.7303C32.2334 39.0947 31.8301 39.498 31.8301 39.995V44.2232C31.8301 44.7201 32.2334 45.1235 32.7303 45.1235H39.2566C39.7536 45.1235 40.1569 44.7201 40.1569 44.2232V39.995C40.1569 39.498 39.7536 39.0947 39.2566 39.0947ZM38.3564 43.3229H33.6306V40.8952H38.3564V43.3229Z" fill="#92C2D6"/>
</svg>
