<svg width="40" height="40" viewBox="0 0 40 40" fill="none" xmlns="http://www.w3.org/2000/svg">
<circle cx="20" cy="20" r="20" fill="white"/>
<path d="M24.4806 10H15.5192C12.4759 10 10 12.476 10 15.5193V24.4807C10 27.5241 12.4759 30 15.5192 30H24.4806C27.5241 30 30 27.524 30 24.4807V15.5193C30.0001 12.476 27.5241 10 24.4806 10ZM28.2256 24.4807C28.2256 26.5456 26.5456 28.2255 24.4807 28.2255H15.5192C13.4544 28.2256 11.7745 26.5456 11.7745 24.4807V15.5193C11.7745 13.4545 13.4544 11.7745 15.5192 11.7745H24.4806C26.5455 11.7745 28.2255 13.4545 28.2255 15.5193V24.4807H28.2256Z" fill="#292929"/>
<path d="M20.0002 14.8467C17.1585 14.8467 14.8467 17.1585 14.8467 20.0002C14.8467 22.8417 17.1585 25.1534 20.0002 25.1534C22.8419 25.1534 25.1537 22.8417 25.1537 20.0002C25.1537 17.1585 22.8419 14.8467 20.0002 14.8467ZM20.0002 23.3788C18.1371 23.3788 16.6212 21.8632 16.6212 20.0001C16.6212 18.1368 18.137 16.6211 20.0002 16.6211C21.8634 16.6211 23.3792 18.1368 23.3792 20.0001C23.3792 21.8632 21.8633 23.3788 20.0002 23.3788Z" fill="#292929"/>
<path d="M25.3697 13.3418C25.0278 13.3418 24.6919 13.4802 24.4505 13.7227C24.2078 13.9641 24.0684 14.3 24.0684 14.6431C24.0684 14.9851 24.208 15.321 24.4505 15.5635C24.6918 15.8048 25.0278 15.9444 25.3697 15.9444C25.7127 15.9444 26.0475 15.8048 26.29 15.5635C26.5325 15.321 26.671 14.985 26.671 14.6431C26.671 14.3 26.5325 13.9641 26.29 13.7227C26.0487 13.4802 25.7127 13.3418 25.3697 13.3418Z" fill="#292929"/>
</svg>
