<svg width="45" height="31" viewBox="0 0 45 31" fill="none" xmlns="http://www.w3.org/2000/svg">
<path d="M44.6699 15.986L38.694 8.88962C38.5446 8.74022 38.3205 8.59082 38.0964 8.59082H29.8795V20.5426H0V25.7715C0 26.2197 0.298795 26.5185 0.746988 26.5185H5.07952C5.00482 26.7426 5.00482 27.0414 5.00482 27.2655C5.00482 29.3571 6.64819 31.0005 8.73976 31.0005C10.8313 31.0005 12.4747 29.3571 12.4747 27.2655C12.4747 27.0414 12.4747 26.7426 12.4 26.5185H32.9422C32.8675 26.7426 32.8675 27.0414 32.8675 27.2655C32.8675 29.3571 34.5108 31.0005 36.6024 31.0005C38.694 31.0005 40.3374 29.3571 40.3374 27.2655C40.3374 27.0414 40.3374 26.7426 40.2627 26.5185H44.0723C44.5205 26.5185 44.8193 26.2197 44.8193 25.7715V16.5089V16.4342C44.8193 16.2848 44.7446 16.1354 44.6699 15.986Z" fill="#FFE9D9"/>
<path d="M10.0098 1.26987C12.2507 0.373483 14.7158 0.448182 17.1062 0.522881C18.376 0.59758 19.7206 0.672278 20.9158 1.12047C22.858 1.86746 24.3519 3.51083 24.8748 5.453C24.9495 5.6771 25.0242 5.97589 25.1736 6.12529C25.323 6.34939 25.6218 6.42409 25.8459 6.57348C26.5929 7.09637 26.817 8.14216 26.4435 8.96384C26.2941 9.18794 26.1447 9.41204 26.1447 9.63613C26.07 10.0096 26.3688 10.3084 26.4435 10.6072C26.6676 11.2048 26.5182 11.9518 25.9953 12.3253C25.7712 12.5494 25.4724 12.6241 25.2483 12.8482C24.9495 13.0723 24.8001 13.4458 24.6507 13.7446C24.2772 14.4169 23.9037 15.0891 23.4556 15.7614C22.9327 16.5831 22.4098 17.4048 21.5134 17.9277C20.9158 18.3759 20.1688 18.5253 19.4218 18.6C17.1809 18.8241 14.8652 18.8241 12.6242 18.6747C11.6531 18.6 10.6074 18.6 9.63628 18.2265C7.54471 17.4795 6.12544 15.4626 5.75194 13.2964C5.67725 12.9976 5.67725 12.6241 5.37845 12.4747C5.15435 12.3253 4.93026 12.4 4.70616 12.3253C4.25797 12.1759 4.03387 11.5783 4.10857 11.0554C4.18327 10.5325 4.55676 10.159 4.85556 9.78553C4.18327 9.41204 3.73508 8.59035 3.95917 7.76866C4.10857 6.72288 4.93026 6.87228 5.45315 6.34939C5.90134 5.90119 5.97604 4.85541 6.34953 4.25782C7.17122 2.83854 8.5158 1.79276 10.0098 1.26987Z" fill="#FFA8A8"/>
<path d="M44.6699 15.986L38.694 8.88962C38.5446 8.74022 38.3205 8.59082 38.0964 8.59082H29.8795V20.5426H0V25.7715C0 26.2197 0.298795 26.5185 0.746988 26.5185H5.07952C5.00482 26.7426 5.00482 27.0414 5.00482 27.2655C5.00482 29.3571 6.64819 31.0005 8.73976 31.0005C10.8313 31.0005 12.4747 29.3571 12.4747 27.2655C12.4747 27.0414 12.4747 26.7426 12.4 26.5185H32.9422C32.8675 26.7426 32.8675 27.0414 32.8675 27.2655C32.8675 29.3571 34.5108 31.0005 36.6024 31.0005C38.694 31.0005 40.3374 29.3571 40.3374 27.2655C40.3374 27.0414 40.3374 26.7426 40.2627 26.5185H44.0723C44.5205 26.5185 44.8193 26.2197 44.8193 25.7715V16.5089V16.4342C44.8193 16.2848 44.7446 16.1354 44.6699 15.986ZM42.5036 15.6872H37.3494V13.0727H40.2627L42.5036 15.6872ZM8.73976 29.5065C7.46988 29.5065 6.4988 28.5354 6.4988 27.2655C6.4988 26.892 6.57349 26.5185 6.79759 26.145C7.17108 25.4727 7.91807 25.0246 8.73976 25.0246C8.96386 25.0246 9.11325 25.0246 9.33735 25.0993C9.71084 25.174 10.0843 25.3981 10.3084 25.6968C10.4578 25.8462 10.5325 25.9956 10.6819 26.145C10.906 26.5185 10.9807 26.892 10.9807 27.2655C10.9807 28.5354 9.93494 29.5065 8.73976 29.5065ZM36.6024 29.5065C35.3325 29.5065 34.3614 28.5354 34.3614 27.2655C34.3614 26.892 34.4361 26.5185 34.6602 26.145C35.0337 25.4727 35.7807 25.0246 36.6024 25.0246C36.8265 25.0246 36.9759 25.0246 37.2 25.0993C37.5735 25.174 37.947 25.3981 38.1711 25.6968C38.3205 25.8462 38.3952 25.9956 38.5446 26.145C38.7687 26.5185 38.8434 26.892 38.8434 27.2655C38.8434 28.5354 37.8723 29.5065 36.6024 29.5065ZM43.3253 25.0246H39.5904C39.5904 24.9499 39.5157 24.9499 39.5157 24.8752C39.441 24.8005 39.3663 24.7258 39.2916 24.6511C39.2169 24.5764 39.2169 24.5764 39.1422 24.5017C39.0675 24.427 38.9928 24.3523 38.9181 24.3523C38.8434 24.2776 38.8434 24.2776 38.7687 24.2776C38.694 24.2029 38.6193 24.2029 38.5446 24.1282C38.4699 24.1282 38.4699 24.0535 38.3952 24.0535C38.3205 23.9788 38.2458 23.9788 38.1711 23.9041C38.0964 23.9041 38.0217 23.8294 38.0217 23.8294C37.947 23.8294 37.8723 23.7547 37.7229 23.7547C37.6482 23.7547 37.5735 23.7547 37.5735 23.68C37.4988 23.68 37.3494 23.6053 37.2747 23.6053C37.2 23.6053 37.2 23.6053 37.1253 23.6053C36.9759 23.6053 36.8265 23.6053 36.6771 23.6053C36.5277 23.6053 36.3783 23.6053 36.2289 23.6053C36.1542 23.6053 36.1542 23.6053 36.0795 23.6053C36.0048 23.6053 35.8554 23.6053 35.7807 23.68C35.706 23.68 35.6313 23.68 35.6313 23.7547C35.5566 23.7547 35.4819 23.8294 35.3325 23.8294C35.2578 23.8294 35.1831 23.9041 35.1831 23.9041C35.1084 23.9788 35.0337 23.9788 34.959 24.0535C34.8843 24.0535 34.8843 24.1282 34.8096 24.1282C34.7349 24.2029 34.6602 24.2029 34.5855 24.2776C34.5108 24.2776 34.5108 24.3523 34.4361 24.3523C34.3614 24.427 34.2867 24.5017 34.2121 24.5017C34.1374 24.5764 34.1374 24.5764 34.0627 24.6511C33.988 24.7258 33.9133 24.8005 33.8386 24.8752C33.8386 24.9499 33.7639 24.9499 33.7639 25.0246H11.7277C11.7277 24.9499 11.653 24.9499 11.653 24.8752C11.5783 24.8005 11.5036 24.7258 11.4289 24.6511C11.3542 24.5764 11.3542 24.5764 11.2795 24.5017C11.2048 24.427 11.1301 24.3523 11.0554 24.3523C10.9807 24.2776 10.9807 24.2776 10.906 24.2776C10.8313 24.2029 10.7566 24.2029 10.6819 24.1282C10.6072 24.1282 10.6072 24.0535 10.5325 24.0535C10.4578 23.9788 10.3831 23.9788 10.3084 23.9041C10.2337 23.9041 10.159 23.8294 10.159 23.8294C10.0843 23.8294 10.0096 23.7547 9.86024 23.7547C9.78554 23.7547 9.71084 23.7547 9.71084 23.68C9.63615 23.68 9.48675 23.6053 9.41205 23.6053C9.33735 23.6053 9.33735 23.6053 9.26265 23.6053C9.11325 23.6053 8.96386 23.6053 8.81446 23.6053C8.66506 23.6053 8.51566 23.6053 8.36627 23.6053C8.29157 23.6053 8.29157 23.6053 8.21687 23.6053C8.14217 23.6053 7.99277 23.6053 7.91807 23.68C7.84337 23.68 7.76867 23.68 7.76867 23.7547C7.69398 23.7547 7.61928 23.8294 7.54458 23.8294C7.46988 23.8294 7.39518 23.9041 7.32048 23.9041C7.24578 23.9041 7.17108 23.9788 7.09639 23.9788C7.02169 23.9788 6.94699 24.0535 6.87229 24.0535C6.79759 24.1282 6.72289 24.1282 6.64819 24.2029C6.57349 24.2776 6.4988 24.2776 6.4988 24.3523C6.4241 24.427 6.4241 24.427 6.3494 24.5017C6.2747 24.5764 6.2 24.5764 6.2 24.6511C5.9759 24.7258 5.9759 24.8005 5.90121 24.8752C5.82651 24.9499 5.82651 25.0246 5.75181 25.0246H1.49398V22.0366H30.6265C31.0747 22.0366 31.3735 21.7378 31.3735 21.2896V10.0848H37.7229L38.9928 11.5788H36.6024C36.1542 11.5788 35.8554 11.8776 35.8554 12.3258V16.4342C35.8554 16.8824 36.1542 17.1812 36.6024 17.1812H43.3253V25.0246Z" fill="black"/>
<path d="M25.547 6.0506C24.8747 2.53976 21.8121 0 18.1518 0H12.3253C8.73976 0 5.67711 2.53976 4.93012 6.0506C4.03374 6.3494 3.36145 7.17108 3.36145 8.14217C3.36145 8.73976 3.58555 9.26265 3.95904 9.63614C3.58555 10.0096 3.36145 10.5325 3.36145 11.1301C3.36145 12.1012 4.03374 12.9976 4.93012 13.2217C5.60241 16.7325 8.66506 19.2723 12.3253 19.2723H18.1518C21.7374 19.2723 24.8 16.7325 25.547 13.2217C26.4434 12.9229 27.1157 12.1012 27.1157 11.1301C27.1157 10.5325 26.8916 10.0096 26.5181 9.63614C26.8916 9.26265 27.1157 8.73976 27.1157 8.14217C27.1904 7.17108 26.5181 6.3494 25.547 6.0506ZM12.3253 1.49398H18.1518C20.9157 1.49398 23.2313 3.36145 23.9783 5.9759H23.6795L23.5301 5.82651C23.2313 5.37831 22.7084 5.22892 22.1855 5.22892H21.7374C21.2145 5.22892 20.6916 5.45301 20.3181 5.82651C20.2434 5.90121 20.094 5.9759 19.9446 5.9759H19.4964C19.347 5.9759 19.1976 5.90121 19.1229 5.82651C18.7494 5.37831 18.2265 5.22892 17.7036 5.22892H17.2554C16.7325 5.22892 16.2096 5.45301 15.8362 5.82651C15.7615 5.90121 15.6121 5.9759 15.4627 5.9759H15.0145C14.8651 5.9759 14.7157 5.90121 14.641 5.82651C14.3422 5.37831 13.8193 5.22892 13.2964 5.22892H12.8482C12.3253 5.22892 11.8024 5.45301 11.4289 5.82651C11.3542 5.90121 11.2048 5.9759 11.0554 5.9759H10.6072C10.4578 5.9759 10.3084 5.90121 10.2337 5.82651C9.86025 5.37831 9.33735 5.22892 8.81446 5.22892H8.36627C7.84338 5.22892 7.32049 5.45301 6.94699 5.82651L6.7976 5.90121H6.5735C7.24579 3.36145 9.63615 1.49398 12.3253 1.49398ZM5.60241 7.39518H7.39518L7.99278 6.79759C8.14217 6.72289 8.21687 6.64819 8.36627 6.64819H8.81446C8.96386 6.64819 9.11326 6.72289 9.18796 6.79759C9.56145 7.17108 10.0843 7.39518 10.6072 7.39518H11.0554C11.5783 7.39518 12.1012 7.17108 12.4747 6.79759C12.5494 6.72289 12.6988 6.64819 12.8482 6.64819H13.2964C13.4458 6.64819 13.5952 6.72289 13.6699 6.79759C14.0434 7.17108 14.5663 7.39518 15.0892 7.39518H15.5374C16.0602 7.39518 16.5831 7.17108 16.9566 6.79759C17.0313 6.72289 17.1807 6.64819 17.2554 6.64819H17.7036C17.853 6.64819 18.0024 6.72289 18.0771 6.79759C18.4506 7.17108 18.9735 7.39518 19.4964 7.39518H19.9446C20.4675 7.39518 20.9904 7.17108 21.3639 6.79759C21.4386 6.72289 21.588 6.64819 21.7374 6.64819H22.1855C22.3349 6.64819 22.4843 6.72289 22.559 6.79759L23.1566 7.39518H24.9494C25.3229 7.39518 25.6964 7.69398 25.6964 8.14217C25.6964 8.59036 25.3976 8.88916 24.9494 8.88916H5.60241C5.22892 8.88916 4.85543 8.59036 4.85543 8.14217C4.85543 7.69398 5.22892 7.39518 5.60241 7.39518ZM18.2265 17.7783H12.4C9.63615 17.7783 7.32049 15.9108 6.5735 13.2964H24.053C23.306 15.9855 20.9904 17.7783 18.2265 17.7783ZM24.9494 11.8771H5.60241C5.22892 11.8771 4.85543 11.5783 4.85543 11.1301C4.85543 10.6819 5.15422 10.3831 5.60241 10.3831H24.8747C25.2482 10.3831 25.6217 10.6819 25.6217 11.1301C25.6217 11.5783 25.3229 11.8771 24.9494 11.8771Z" fill="black"/>
</svg>
