<svg width="100" height="100" viewBox="0 0 100 100" fill="none" xmlns="http://www.w3.org/2000/svg">
<circle cx="50" cy="50" r="50" fill="white"/>
<path d="M77.5619 22.4383V77.5619H22.4383V22.4383H77.5619ZM77.5619 20.9092H22.4383C21.5973 20.9092 20.9092 21.5973 20.9092 22.4383V77.5619C20.9092 78.4029 21.5973 79.091 22.4383 79.091H77.5619C78.4029 79.091 79.091 78.4029 79.091 77.5619V22.4383C79.091 21.5973 78.4029 20.9092 77.5619 20.9092Z" fill="#F4976E"/>
<path d="M50.8028 37.8061C50.8028 37.1944 50.5735 36.6592 50.1912 36.277C50.5735 35.8947 50.8028 35.3595 50.8028 34.7479C50.8028 33.6775 50.1147 32.8365 49.1973 32.5307C48.4327 28.9373 45.2981 26.3379 41.5518 26.3379H35.5119C31.7657 26.3379 28.631 29.0138 27.9429 32.5307C27.0255 32.8365 26.3374 33.6775 26.3374 34.7479C26.3374 35.3595 26.5668 35.8947 26.949 36.277C26.5668 36.6592 26.3374 37.1944 26.3374 37.8061C26.3374 38.8764 27.0255 39.7174 27.9429 40.0232C28.631 43.6166 31.8421 46.216 35.5119 46.216H41.5518C45.2216 46.216 48.4327 43.5401 49.1208 40.0232C50.1147 39.7174 50.8028 38.8 50.8028 37.8061ZM35.5119 27.867H41.5518C44.3806 27.867 46.8272 29.7783 47.5153 32.4542H47.2095L47.0566 32.3013C46.6743 31.9191 46.1391 31.6897 45.6039 31.6897H45.1452C44.61 31.6897 44.0748 31.9191 43.6926 32.3013C43.6161 32.3778 43.4632 32.4542 43.3103 32.4542H42.8516C42.6987 32.4542 42.5457 32.3778 42.4693 32.3013C42.087 31.9191 41.5518 31.6897 41.0167 31.6897H40.5579C40.0227 31.6897 39.4876 31.9191 39.1053 32.3013C39.0288 32.3778 38.8759 32.4542 38.723 32.4542H38.2643C38.1114 32.4542 37.9585 32.3778 37.882 32.3013C37.4997 31.9191 36.9646 31.6897 36.4294 31.6897H35.9707C35.4355 31.6897 34.9003 31.9191 34.518 32.3013C34.4416 32.3778 34.2887 32.4542 34.1358 32.4542H33.677C33.5241 32.4542 33.3712 32.3778 33.2948 32.3013C32.9125 31.9191 32.3773 31.6897 31.8421 31.6897H31.3834C30.8482 31.6897 30.313 31.9191 29.9308 32.3013L29.7779 32.4542H29.472C30.2366 29.7783 32.6831 27.867 35.5119 27.867ZM28.631 33.9833H30.4659L31.0776 33.3717C31.154 33.2952 31.3069 33.2188 31.4598 33.2188H31.9186C32.0715 33.2188 32.2244 33.2952 32.3008 33.3717C32.6831 33.754 33.2183 33.9833 33.7535 33.9833H34.2122C34.7474 33.9833 35.2826 33.754 35.6648 33.3717C35.7413 33.2952 35.8942 33.2188 36.0471 33.2188H36.5058C36.6587 33.2188 36.8117 33.2952 36.8881 33.3717C37.2704 33.754 37.8056 33.9833 38.3407 33.9833H38.7995C39.3347 33.9833 39.8698 33.754 40.2521 33.3717C40.3286 33.2952 40.4815 33.2188 40.6344 33.2188H41.0931C41.246 33.2188 41.3989 33.2952 41.4754 33.3717C41.8577 33.754 42.3928 33.9833 42.928 33.9833H43.3867C43.9219 33.9833 44.4571 33.754 44.8394 33.3717C44.9158 33.2952 45.0687 33.2188 45.2216 33.2188H45.6804C45.8333 33.2188 45.9862 33.2952 46.0626 33.3717L46.6743 33.9833H48.5092C48.9679 33.9833 49.2737 34.2892 49.2737 34.7479C49.2737 35.2066 48.9679 35.5124 48.5092 35.5124H28.631C28.1723 35.5124 27.8665 35.2066 27.8665 34.7479C27.8665 34.2892 28.1723 33.9833 28.631 33.9833ZM28.631 37.0415H48.5092C48.9679 37.0415 49.2737 37.3473 49.2737 37.8061C49.2737 38.2648 48.9679 38.5706 48.5092 38.5706H28.631C28.1723 38.5706 27.8665 38.2648 27.8665 37.8061C27.8665 37.3473 28.1723 37.0415 28.631 37.0415ZM41.5518 44.687H35.5119C32.6831 44.687 30.2366 42.7756 29.5485 40.0997H47.5917C46.8272 42.7756 44.3806 44.687 41.5518 44.687Z" fill="#F4976E"/>
<path d="M72.0571 60.0541C71.369 56.4608 68.1579 53.8613 64.4881 53.8613H58.4482C54.7784 53.8613 51.5673 56.5372 50.8792 60.0541C49.9618 60.36 49.2737 61.201 49.2737 62.2713C49.2737 62.8829 49.503 63.4181 49.8853 63.8004C49.503 64.1827 49.2737 64.7179 49.2737 65.3295C49.2737 66.3999 49.9618 67.2409 50.8792 67.5467C51.5673 71.14 54.7784 73.7395 58.4482 73.7395H64.4881C68.1579 73.7395 71.369 71.0636 72.0571 67.5467C72.9746 67.2409 73.6626 66.3999 73.6626 65.3295C73.6626 64.7179 73.4333 64.1827 73.051 63.8004C73.4333 63.4181 73.6626 62.8829 73.6626 62.2713C73.7391 61.201 73.051 60.36 72.0571 60.0541ZM58.4482 55.3904H64.4881C67.3169 55.3904 69.7635 57.3018 70.4516 59.9777H70.1457L69.9928 59.8248C69.6106 59.4425 69.0754 59.2131 68.5402 59.2131H68.0815C67.5463 59.2131 67.0111 59.4425 66.6288 59.8248C66.5524 59.9012 66.3995 59.9777 66.2466 59.9777H65.7878C65.6349 59.9777 65.482 59.9012 65.4056 59.8248C65.0233 59.4425 64.4881 59.2131 63.9529 59.2131H63.4942C62.959 59.2131 62.4238 59.4425 62.0416 59.8248C61.9651 59.9012 61.8122 59.9777 61.6593 59.9777H61.2006C61.0477 59.9777 60.8948 59.9012 60.8183 59.8248C60.436 59.4425 59.9008 59.2131 59.3657 59.2131H58.9069C58.3718 59.2131 57.8366 59.4425 57.4543 59.8248C57.3779 59.9012 57.2249 59.9777 57.072 59.9777H56.6133C56.4604 59.9777 56.3075 59.9012 56.231 59.8248C55.8488 59.4425 55.3136 59.2131 54.7784 59.2131H54.3197C53.7845 59.2131 53.2493 59.4425 52.867 59.8248L52.7141 59.9777H52.4083C53.1729 57.3018 55.6194 55.3904 58.4482 55.3904ZM51.5673 61.5068H53.4022L54.0139 60.8951C54.0903 60.8187 54.2432 60.7422 54.3961 60.7422H54.8549C55.0078 60.7422 55.1607 60.8187 55.2371 60.8951C55.6194 61.2774 56.1546 61.5068 56.6898 61.5068H57.1485C57.6837 61.5068 58.2189 61.2774 58.6011 60.8951C58.6776 60.8187 58.8305 60.7422 58.9834 60.7422H59.4421C59.595 60.7422 59.7479 60.8187 59.8244 60.8951C60.2067 61.2774 60.7418 61.5068 61.277 61.5068H61.7358C62.2709 61.5068 62.8061 61.2774 63.1884 60.8951C63.2648 60.8187 63.4178 60.7422 63.5707 60.7422H64.0294C64.1823 60.7422 64.3352 60.8187 64.4117 60.8951C64.7939 61.2774 65.3291 61.5068 65.8643 61.5068H66.323C66.8582 61.5068 67.3934 61.2774 67.7757 60.8951C67.8521 60.8187 68.005 60.7422 68.1579 60.7422H68.6167C68.7696 60.7422 68.9225 60.8187 68.9989 60.8951L69.6106 61.5068H71.4455C71.9042 61.5068 72.21 61.8126 72.21 62.2713C72.21 62.73 71.9042 63.0359 71.4455 63.0359H51.5673C51.1086 63.0359 50.8028 62.73 50.8028 62.2713C50.8028 61.8126 51.1086 61.5068 51.5673 61.5068ZM64.4881 72.2104H58.4482C55.6194 72.2104 53.1729 70.299 52.4848 67.6231H70.528C69.7635 70.299 67.3169 72.2104 64.4881 72.2104ZM71.4455 66.094H51.5673C51.1086 66.094 50.8028 65.7882 50.8028 65.3295C50.8028 64.8708 51.1086 64.5649 51.5673 64.5649H71.4455C71.9042 64.5649 72.21 64.8708 72.21 65.3295C72.21 65.7882 71.8277 66.094 71.4455 66.094Z" fill="#F4976E"/>
<path d="M39.9463 50.879C39.6405 49.9615 38.7995 49.2734 37.7292 49.2734C37.1175 49.2734 36.5823 49.5028 36.2001 49.8851C35.8178 49.5028 35.2826 49.2734 34.671 49.2734C33.6006 49.2734 32.7596 49.9615 32.4538 50.879C28.8604 51.5671 26.261 54.7782 26.261 58.448V64.4879C26.261 68.1577 28.9369 71.3688 32.4538 72.0569C32.7596 72.9743 33.6006 73.6624 34.671 73.6624C35.2826 73.6624 35.8178 73.433 36.2001 73.0508C36.5823 73.433 37.1175 73.6624 37.7292 73.6624C38.7995 73.6624 39.6405 72.9743 39.9463 72.0569C43.5397 71.3688 46.1391 68.1577 46.1391 64.4879V58.448C46.2156 54.7782 43.5397 51.5671 39.9463 50.879ZM27.8665 64.4879V58.448C27.8665 55.6192 29.7779 53.1726 32.4538 52.4845V52.7903L32.3009 52.9433C31.9186 53.3255 31.6893 53.8607 31.6893 54.3959V54.8546C31.6893 55.3898 31.9186 55.925 32.3009 56.3072C32.3773 56.3837 32.4538 56.5366 32.4538 56.6895V57.1482C32.4538 57.3012 32.3773 57.4541 32.3009 57.5305C31.9186 57.9128 31.6893 58.448 31.6893 58.9832V59.4419C31.6893 59.9771 31.9186 60.5122 32.3009 60.8945C32.3773 60.971 32.4538 61.1239 32.4538 61.2768V61.7355C32.4538 61.8884 32.3773 62.0413 32.3009 62.1178C31.9186 62.5001 31.6893 63.0352 31.6893 63.5704V64.0291C31.6893 64.5643 31.9186 65.0995 32.3009 65.4818C32.3773 65.5582 32.4538 65.7111 32.4538 65.864V66.3228C32.4538 66.4757 32.3773 66.6286 32.3009 66.705C31.9186 67.0873 31.6893 67.6225 31.6893 68.1577V68.6164C31.6893 69.1516 31.9186 69.6868 32.3009 70.069L32.4538 70.222V70.5278C29.7779 69.7632 27.8665 67.3167 27.8665 64.4879ZM34.7474 72.2098C34.2887 72.2098 33.9829 71.9039 33.9829 71.4452V69.6103L33.3712 68.9987C33.2948 68.9222 33.2183 68.7693 33.2183 68.6164V68.1577C33.2183 68.0048 33.2948 67.8519 33.3712 67.7754C33.7535 67.3931 33.9829 66.858 33.9829 66.3228V65.864C33.9829 65.3289 33.7535 64.7937 33.3712 64.4114C33.2948 64.335 33.2183 64.1821 33.2183 64.0291V63.5704C33.2183 63.4175 33.2948 63.2646 33.3712 63.1881C33.7535 62.8059 33.9829 62.2707 33.9829 61.7355V61.2768C33.9829 60.7416 33.7535 60.2064 33.3712 59.8242C33.2948 59.7477 33.2183 59.5948 33.2183 59.4419V58.9832C33.2183 58.8302 33.2948 58.6773 33.3712 58.6009C33.7535 58.2186 33.9829 57.6834 33.9829 57.1482V56.6895C33.9829 56.1543 33.7535 55.6192 33.3712 55.2369C33.2948 55.1604 33.2183 55.0075 33.2183 54.8546V54.3959C33.2183 54.243 33.2948 54.0901 33.3712 54.0136L33.9829 53.402V51.5671C33.9829 51.1083 34.2887 50.8025 34.7474 50.8025C35.2062 50.8025 35.512 51.1083 35.512 51.5671V71.4452C35.512 71.8275 35.1297 72.2098 34.7474 72.2098ZM38.5702 71.4452C38.5702 71.9039 38.2643 72.2098 37.8056 72.2098C37.3469 72.2098 37.0411 71.9039 37.0411 71.4452V51.5671C37.0411 51.1083 37.3469 50.8025 37.8056 50.8025C38.2643 50.8025 38.5702 51.1083 38.5702 51.5671V71.4452ZM44.6865 64.4879C44.6865 67.3167 42.7751 69.7632 40.0992 70.4513V52.4845C42.7751 53.1726 44.6865 55.6192 44.6865 58.448V64.4879Z" fill="#F4976E"/>
<path d="M67.4698 27.9434C67.164 27.026 66.323 26.3379 65.2526 26.3379C64.641 26.3379 64.1058 26.5673 63.7235 26.9495C63.3412 26.5673 62.806 26.3379 62.1944 26.3379C61.124 26.3379 60.283 27.026 59.9772 27.9434C56.3839 28.6315 53.7844 31.8426 53.7844 35.5124V41.5523C53.7844 45.2221 56.4603 48.4332 59.9772 49.1213C60.283 50.0388 61.124 50.7269 62.1944 50.7269C62.806 50.7269 63.3412 50.4975 63.7235 50.1152C64.1058 50.4975 64.641 50.7269 65.2526 50.7269C66.323 50.7269 67.164 50.0388 67.4698 49.1213C71.0631 48.4332 73.6626 45.2221 73.6626 41.5523V35.5124C73.739 31.8426 71.0631 28.6315 67.4698 27.9434ZM55.39 41.5523V35.5124C55.39 32.6836 57.3013 30.2371 59.9772 29.549V47.5922C57.3013 46.8277 55.39 44.3811 55.39 41.5523ZM62.2709 49.2742C61.8121 49.2742 61.5063 48.9684 61.5063 48.5097V28.6315C61.5063 28.1728 61.8121 27.867 62.2709 27.867C62.7296 27.867 63.0354 28.1728 63.0354 28.6315V48.5097C63.0354 48.8919 62.6531 49.2742 62.2709 49.2742ZM66.0936 46.6748V48.5097C66.0936 48.9684 65.7878 49.2742 65.329 49.2742C64.8703 49.2742 64.5645 48.9684 64.5645 48.5097V28.6315C64.5645 28.1728 64.8703 27.867 65.329 27.867C65.7878 27.867 66.0936 28.1728 66.0936 28.6315V30.4664L66.7052 31.0781C66.7817 31.1545 66.8581 31.3074 66.8581 31.4603V31.9191C66.8581 32.072 66.7817 32.2249 66.7052 32.3013C66.323 32.6836 66.0936 33.2188 66.0936 33.754V34.2127C66.0936 34.7479 66.323 35.2831 66.7052 35.6653C66.7817 35.7418 66.8581 35.8947 66.8581 36.0476V36.5063C66.8581 36.6592 66.7817 36.8121 66.7052 36.8886C66.323 37.2709 66.0936 37.8061 66.0936 38.3412V38.8C66.0936 39.3351 66.323 39.8703 66.7052 40.2526C66.7817 40.329 66.8581 40.482 66.8581 40.6349V41.0936C66.8581 41.2465 66.7817 41.3994 66.7052 41.4759C66.323 41.8581 66.0936 42.3933 66.0936 42.9285V43.3872C66.0936 43.9224 66.323 44.4576 66.7052 44.8399C66.7817 44.9163 66.8581 45.0692 66.8581 45.2221V45.6809C66.8581 45.8338 66.7817 45.9867 66.7052 46.0631L66.0936 46.6748ZM72.2099 41.5523C72.2099 44.3811 70.2986 46.8277 67.6227 47.5158V47.2099L67.7756 47.057C68.1579 46.6748 68.3872 46.1396 68.3872 45.6044V45.1457C68.3872 44.6105 68.1579 44.0753 67.7756 43.693C67.6991 43.6166 67.6227 43.4637 67.6227 43.3108V42.852C67.6227 42.6991 67.6991 42.5462 67.7756 42.4698C68.1579 42.0875 68.3872 41.5523 68.3872 41.0171V40.5584C68.3872 40.0232 68.1579 39.4881 67.7756 39.1058C67.6991 39.0293 67.6227 38.8764 67.6227 38.7235V38.2648C67.6227 38.1119 67.6991 37.959 67.7756 37.8825C68.1579 37.5002 68.3872 36.9651 68.3872 36.4299V35.9711C68.3872 35.436 68.1579 34.9008 67.7756 34.5185C67.6991 34.4421 67.6227 34.2891 67.6227 34.1362V33.6775C67.6227 33.5246 67.6991 33.3717 67.7756 33.2952C68.1579 32.913 68.3872 32.3778 68.3872 31.8426V31.3839C68.3872 30.8487 68.1579 30.3135 67.7756 29.9312L67.6227 29.7783V29.4725C70.2986 30.1606 72.2099 32.6072 72.2099 35.436V41.5523Z" fill="#F4976E"/>
</svg>
