<svg width="100" height="100" viewBox="0 0 100 100" fill="none" xmlns="http://www.w3.org/2000/svg">
<circle cx="50" cy="50" r="50" fill="white"/>
<path d="M58.763 26.4822C58.1507 23.3173 55.2936 20.9092 52.0283 20.9092H46.6541C43.3888 20.9092 40.5317 23.3173 39.9195 26.4822C39.0351 26.7574 38.4229 27.5142 38.4229 28.4774C38.4229 29.0278 38.6269 29.5095 38.9671 29.8535C38.6269 30.1975 38.4229 30.6791 38.4229 31.2295C38.4229 32.1927 39.0351 32.9496 39.8514 33.2248C40.4637 36.4585 43.3208 38.7977 46.5861 38.7977H51.9603C55.2256 38.7977 58.0827 36.3897 58.695 33.2248C59.5113 32.9496 60.1235 32.1927 60.1235 31.2295C60.1235 30.6791 59.9194 30.1975 59.5793 29.8535C59.9194 29.5095 60.1235 29.0278 60.1235 28.4774C60.1916 27.5142 59.5793 26.7574 58.763 26.4822ZM46.6541 22.2852H52.0283C54.5453 22.2852 56.7222 24.0053 57.3344 26.4134H57.0623L56.9262 26.2757C56.5861 25.9317 56.1779 25.7253 55.6337 25.7253H55.2256C54.7494 25.7253 54.2732 25.9317 53.9331 26.2757C53.865 26.3446 53.729 26.4134 53.5929 26.4134H53.1848C53.0487 26.4134 52.9126 26.3446 52.8446 26.2757C52.5045 25.9317 52.0963 25.7253 51.5521 25.7253H51.1439C50.6677 25.7253 50.1916 25.9317 49.8514 26.2757C49.7834 26.3446 49.6473 26.4134 49.5113 26.4134H49.1031C48.9671 26.4134 48.831 26.3446 48.763 26.2757C48.4228 25.9317 48.0147 25.7253 47.4705 25.7253H47.0623C46.5861 25.7253 46.1099 25.9317 45.7698 26.2757C45.7018 26.3446 45.5657 26.4134 45.4297 26.4134H45.0215C44.8854 26.4134 44.7494 26.3446 44.6814 26.2757C44.3412 25.9317 43.9331 25.7253 43.3888 25.7253H42.9807C42.5045 25.7253 42.0283 25.9317 41.6882 26.2757L41.5521 26.4134H41.28C41.9603 24.0053 44.1371 22.2852 46.6541 22.2852ZM40.4637 27.7894H42.0963L42.6405 27.239C42.7766 27.1702 42.9126 27.1014 42.9807 27.1014H43.3888C43.5249 27.1014 43.6609 27.1702 43.729 27.239C44.0691 27.583 44.5453 27.7894 45.0215 27.7894H45.4297C45.9058 27.7894 46.382 27.583 46.7222 27.239C46.8582 27.1702 46.9943 27.1014 47.0623 27.1014H47.4705C47.6065 27.1014 47.7426 27.1702 47.8106 27.239C48.1507 27.583 48.6269 27.7894 49.1031 27.7894H49.5113C49.9875 27.7894 50.4637 27.583 50.8038 27.239C50.9399 27.1702 51.0759 27.1014 51.1439 27.1014H51.5521C51.6882 27.1014 51.8242 27.1702 51.8922 27.239C52.2324 27.583 52.7086 27.7894 53.1848 27.7894H53.5929C54.0691 27.7894 54.5453 27.583 54.8854 27.239C55.0215 27.1702 55.1575 27.1014 55.2256 27.1014H55.6337C55.7698 27.1014 55.9058 27.1702 55.9739 27.239L56.5181 27.7894H58.1507C58.5589 27.7894 58.831 28.0646 58.831 28.4774C58.831 28.8902 58.5589 29.1654 58.1507 29.1654H40.4637C40.0555 29.1654 39.7834 28.8902 39.7834 28.4774C39.7834 28.0646 40.1235 27.7894 40.4637 27.7894ZM52.0283 37.4217H46.6541C44.1371 37.4217 41.9603 35.7016 41.348 33.2936H57.4024C56.7222 35.7016 54.5453 37.4217 52.0283 37.4217ZM58.1507 31.9175H40.4637C40.0555 31.9175 39.7834 31.6423 39.7834 31.2295C39.7834 30.8167 40.0555 30.5415 40.4637 30.5415H58.1507C58.5589 30.5415 58.831 30.8167 58.831 31.2295C58.831 31.6423 58.5589 31.9175 58.1507 31.9175Z" fill="#E67285"/>
<path d="M34.8855 64.0476C34.2733 60.8139 31.4162 58.4746 28.1509 58.4746H22.7767C19.5114 58.4746 16.6543 60.8827 16.042 64.0476C15.1577 64.3228 14.5454 65.0796 14.5454 66.0428C14.5454 66.5933 14.7495 67.0749 15.0896 67.4189C14.7495 67.7629 14.5454 68.2445 14.5454 68.7949C14.5454 69.7582 15.1577 70.515 15.974 70.7902C16.5862 74.0239 19.4434 76.3632 22.7087 76.3632H28.0828C31.3481 76.3632 34.2053 73.9551 34.8175 70.7902C35.6338 70.515 36.2461 69.7582 36.2461 68.7949C36.2461 68.2445 36.042 67.7629 35.7019 67.4189C36.042 67.0749 36.2461 66.5933 36.2461 66.0428C36.3141 65.0796 35.7019 64.3228 34.8855 64.0476ZM22.7767 59.8507H28.1509C30.6679 59.8507 32.8447 61.5707 33.457 63.9788H33.1849L33.0488 63.8412C32.7087 63.4972 32.2325 63.2908 31.7563 63.2908H31.3481C30.8719 63.2908 30.3957 63.4972 30.0556 63.8412C29.9876 63.91 29.8515 63.9788 29.7155 63.9788H29.3073C29.1713 63.9788 29.0352 63.91 28.9672 63.8412C28.627 63.4972 28.1509 63.2908 27.6747 63.2908H27.2665C26.7903 63.2908 26.3141 63.4972 25.974 63.8412C25.906 63.91 25.7699 63.9788 25.6338 63.9788H25.2257C25.0896 63.9788 24.9536 63.91 24.8855 63.8412C24.5454 63.4972 24.0692 63.2908 23.593 63.2908H23.1849C22.7087 63.2908 22.2325 63.4972 21.8923 63.8412C21.8243 63.91 21.6883 63.9788 21.5522 63.9788H21.144C21.008 63.9788 20.8719 63.91 20.8039 63.8412C20.4638 63.4972 19.9876 63.2908 19.5114 63.2908H19.1032C18.627 63.2908 18.1509 63.4972 17.8107 63.8412L17.6747 63.9788H17.4026C18.0828 61.5707 20.2597 59.8507 22.7767 59.8507ZM16.5862 65.3548H18.2189L18.7631 64.8044C18.8311 64.7356 18.9672 64.6668 19.1032 64.6668H19.5114C19.6475 64.6668 19.7835 64.7356 19.8515 64.8044C20.1917 65.1484 20.6679 65.3548 21.144 65.3548H21.5522C22.0284 65.3548 22.5046 65.1484 22.8447 64.8044C22.9128 64.7356 23.0488 64.6668 23.1849 64.6668H23.593C23.7291 64.6668 23.8651 64.7356 23.9332 64.8044C24.2733 65.1484 24.7495 65.3548 25.2257 65.3548H25.6338C26.11 65.3548 26.5862 65.1484 26.9264 64.8044C26.9944 64.7356 27.1304 64.6668 27.2665 64.6668H27.6747C27.8107 64.6668 27.9468 64.7356 28.0148 64.8044C28.3549 65.1484 28.8311 65.3548 29.3073 65.3548H29.7155C30.1917 65.3548 30.6679 65.1484 31.008 64.8044C31.076 64.7356 31.2121 64.6668 31.3481 64.6668H31.7563C31.8923 64.6668 32.0284 64.7356 32.0964 64.8044L32.6406 65.3548H34.2733C34.6815 65.3548 34.9536 65.63 34.9536 66.0428C34.9536 66.4557 34.6815 66.7309 34.2733 66.7309H16.5862C16.1781 66.7309 15.906 66.4557 15.906 66.0428C15.906 65.63 16.1781 65.3548 16.5862 65.3548ZM28.0828 74.9871H22.7087C20.1917 74.9871 18.0148 73.2671 17.4026 70.859H33.457C32.7767 73.2671 30.5998 74.9871 28.0828 74.9871ZM34.2733 69.483H16.5862C16.1781 69.483 15.906 69.2077 15.906 68.7949C15.906 68.3821 16.1781 68.1069 16.5862 68.1069H34.2733C34.6815 68.1069 34.9536 68.3821 34.9536 68.7949C34.9536 69.1389 34.6815 69.483 34.2733 69.483Z" fill="#E67285"/>
<path d="M58.9669 64.0476C58.3547 60.8139 55.4975 58.4746 52.2322 58.4746H46.8581C43.5928 58.4746 40.7356 60.8827 40.1234 64.0476C39.3071 64.3228 38.6948 65.0796 38.6948 66.0428C38.6948 66.5933 38.8989 67.0749 39.239 67.4189C38.8989 67.7629 38.6948 68.2445 38.6948 68.7949C38.6948 69.7582 39.3071 70.515 40.1234 70.7902C40.7356 74.0239 43.5928 76.3632 46.8581 76.3632H52.2322C55.4975 76.3632 58.3547 73.9551 58.9669 70.7902C59.7833 70.515 60.3955 69.7582 60.3955 68.7949C60.3955 68.2445 60.1914 67.7629 59.8513 67.4189C60.1914 67.0749 60.3955 66.5933 60.3955 66.0428C60.3955 65.0796 59.7833 64.3228 58.9669 64.0476ZM46.8581 59.8507H52.2322C54.7492 59.8507 56.9261 61.5707 57.5384 63.9788H57.2662L57.1302 63.8412C56.7901 63.4972 56.3139 63.2908 55.8377 63.2908H55.4295C54.9533 63.2908 54.4771 63.4972 54.137 63.8412C54.069 63.91 53.9329 63.9788 53.7969 63.9788H53.3887C53.2526 63.9788 53.1166 63.91 53.0486 63.8412C52.7084 63.4972 52.2322 63.2908 51.756 63.2908H51.3479C50.8717 63.2908 50.3955 63.4972 50.0554 63.8412C49.9873 63.91 49.8513 63.9788 49.7152 63.9788H49.3071C49.171 63.9788 49.035 63.91 48.9669 63.8412C48.6268 63.4972 48.1506 63.2908 47.6744 63.2908H47.2662C46.7901 63.2908 46.3139 63.4972 45.9737 63.8412C45.9057 63.91 45.7697 63.9788 45.6336 63.9788H45.2254C45.0894 63.9788 44.9533 63.91 44.8853 63.8412C44.5452 63.4972 44.069 63.2908 43.5928 63.2908H43.1846C42.7084 63.2908 42.2322 63.4972 41.8921 63.8412L41.756 63.9788H41.4839C42.1642 61.5707 44.3411 59.8507 46.8581 59.8507ZM40.6676 65.3548H42.3003L42.8445 64.8044C42.9125 64.7356 43.0486 64.6668 43.1846 64.6668H43.5928C43.7288 64.6668 43.8649 64.7356 43.9329 64.8044C44.2731 65.1484 44.7492 65.3548 45.2254 65.3548H45.6336C46.1098 65.3548 46.586 65.1484 46.9261 64.8044C46.9941 64.7356 47.1302 64.6668 47.2662 64.6668H47.6744C47.8105 64.6668 47.9465 64.7356 48.0146 64.8044C48.3547 65.1484 48.8309 65.3548 49.3071 65.3548H49.7152C50.1914 65.3548 50.6676 65.1484 51.0077 64.8044C51.0758 64.7356 51.2118 64.6668 51.3479 64.6668H51.756C51.8921 64.6668 52.0282 64.7356 52.0962 64.8044C52.4363 65.1484 52.9125 65.3548 53.3887 65.3548H53.7969C54.2731 65.3548 54.7492 65.1484 55.0894 64.8044C55.1574 64.7356 55.2935 64.6668 55.4295 64.6668H55.8377C55.9737 64.6668 56.1098 64.7356 56.1778 64.8044L56.722 65.3548H58.3547C58.7628 65.3548 59.035 65.63 59.035 66.0428C59.035 66.4557 58.7628 66.7309 58.3547 66.7309H40.6676C40.2595 66.7309 39.9873 66.4557 39.9873 66.0428C39.9873 65.63 40.3275 65.3548 40.6676 65.3548ZM52.2322 74.9871H46.8581C44.3411 74.9871 42.1642 73.2671 41.552 70.859H57.6064C56.9261 73.2671 54.7492 74.9871 52.2322 74.9871ZM58.3547 69.483H40.6676C40.2595 69.483 39.9873 69.2077 39.9873 68.7949C39.9873 68.3821 40.2595 68.1069 40.6676 68.1069H58.3547C58.7628 68.1069 59.035 68.3821 59.035 68.7949C59.035 69.1389 58.7628 69.483 58.3547 69.483Z" fill="#E67285"/>
<path d="M83.049 64.0476C82.4367 60.8139 79.5796 58.4746 76.3143 58.4746H70.9401C67.6748 58.4746 64.8177 60.8827 64.2054 64.0476C63.3891 64.3228 62.7769 65.0796 62.7769 66.0428C62.7769 66.5933 62.9809 67.0749 63.3211 67.4189C62.9809 67.7629 62.7769 68.2445 62.7769 68.7949C62.7769 69.7582 63.3891 70.515 64.2054 70.7902C64.8177 74.0239 67.6748 76.3632 70.9401 76.3632H76.3143C79.5796 76.3632 82.4367 73.9551 83.049 70.7902C83.8653 70.515 84.4775 69.7582 84.4775 68.7949C84.4775 68.2445 84.2734 67.7629 83.9333 67.4189C84.2734 67.0749 84.4775 66.5933 84.4775 66.0428C84.5456 65.0796 83.9333 64.3228 83.049 64.0476ZM70.9401 59.8507H76.3143C78.8313 59.8507 81.0081 61.5707 81.6204 63.9788H81.3483L81.2122 63.8412C80.8721 63.4972 80.3959 63.2908 79.9197 63.2908H79.5115C79.0354 63.2908 78.5592 63.4972 78.219 63.8412C78.151 63.91 78.0149 63.9788 77.8789 63.9788H77.4707C77.3347 63.9788 77.1986 63.91 77.1306 63.8412C76.7905 63.4972 76.3143 63.2908 75.8381 63.2908H75.4299C74.9537 63.2908 74.4775 63.4972 74.1374 63.8412C74.0694 63.91 73.9333 63.9788 73.7973 63.9788H73.3891C73.253 63.9788 73.117 63.91 73.049 63.8412C72.7088 63.4972 72.2326 63.2908 71.7564 63.2908H71.3483C70.8721 63.2908 70.3959 63.4972 70.0558 63.8412C69.9877 63.91 69.8517 63.9788 69.7156 63.9788H69.3075C69.1714 63.9788 69.0354 63.91 68.9673 63.8412C68.6272 63.4972 68.151 63.2908 67.6748 63.2908H67.2666C66.7905 63.2908 66.3143 63.4972 65.9741 63.8412L65.8381 63.9788H65.566C66.2462 61.5707 68.4231 59.8507 70.9401 59.8507ZM64.8177 65.3548H66.4503L66.9945 64.8044C67.0626 64.7356 67.1986 64.6668 67.3347 64.6668H67.7428C67.8789 64.6668 68.0149 64.7356 68.083 64.8044C68.4231 65.1484 68.8993 65.3548 69.3755 65.3548H69.7837C70.2598 65.3548 70.736 65.1484 71.0762 64.8044C71.1442 64.7356 71.2803 64.6668 71.4163 64.6668H71.8245C71.9605 64.6668 72.0966 64.7356 72.1646 64.8044C72.5047 65.1484 72.9809 65.3548 73.4571 65.3548H73.8653C74.3415 65.3548 74.8177 65.1484 75.1578 64.8044C75.2258 64.7356 75.3619 64.6668 75.4979 64.6668H75.9061C76.0422 64.6668 76.1782 64.7356 76.2462 64.8044C76.5864 65.1484 77.0626 65.3548 77.5388 65.3548H77.9469C78.4231 65.3548 78.8993 65.1484 79.2394 64.8044C79.3075 64.7356 79.4435 64.6668 79.5796 64.6668H79.9877C80.1238 64.6668 80.2598 64.7356 80.3279 64.8044L80.8721 65.3548H82.5047C82.9129 65.3548 83.185 65.63 83.185 66.0428C83.185 66.4557 82.9129 66.7309 82.5047 66.7309H64.8177C64.4095 66.7309 64.1374 66.4557 64.1374 66.0428C64.1374 65.63 64.4095 65.3548 64.8177 65.3548ZM76.3143 74.9871H70.9401C68.4231 74.9871 66.2462 73.2671 65.634 70.859H81.6884C81.0081 73.2671 78.8313 74.9871 76.3143 74.9871ZM82.5047 69.483H64.8177C64.4095 69.483 64.1374 69.2077 64.1374 68.7949C64.1374 68.3821 64.4095 68.1069 64.8177 68.1069H82.5047C82.9129 68.1069 83.185 68.3821 83.185 68.7949C83.185 69.1389 82.8449 69.483 82.5047 69.483Z" fill="#E67285"/>
<path d="M46.9264 45.2654C46.3142 42.0317 43.457 39.6924 40.1917 39.6924H34.8176C31.5523 39.6924 28.6951 42.1005 28.0829 45.2654C27.2665 45.5406 26.6543 46.2974 26.6543 47.2606C26.6543 47.811 26.8584 48.2927 27.1985 48.6367C26.8584 48.9807 26.6543 49.4623 26.6543 50.0127C26.6543 50.9759 27.2665 51.7328 28.0829 52.008C28.6951 55.2417 31.5523 57.5809 34.8176 57.5809H40.1917C43.457 57.5809 46.3142 55.1729 46.9264 52.008C47.7427 51.7328 48.355 50.9759 48.355 50.0127C48.355 49.4623 48.1509 48.9807 47.8108 48.6367C48.1509 48.2927 48.355 47.811 48.355 47.2606C48.355 46.2974 47.7427 45.4718 46.9264 45.2654ZM34.8176 40.9996H40.1917C42.7087 40.9996 44.8856 42.7197 45.4978 45.1278H45.2257L45.0897 44.9901C44.7495 44.6461 44.2733 44.4397 43.7972 44.4397H43.389C42.9128 44.4397 42.4366 44.6461 42.0965 44.9901C42.0284 45.059 41.8924 45.1278 41.7563 45.1278H41.3482C41.2121 45.1278 41.0761 45.059 41.008 44.9901C40.6679 44.6461 40.1917 44.4397 39.7155 44.4397H39.3074C38.8312 44.4397 38.355 44.6461 38.0148 44.9901C37.9468 45.059 37.8108 45.1278 37.6747 45.1278H37.2665C37.1305 45.1278 36.9944 45.059 36.9264 44.9901C36.5863 44.6461 36.1101 44.4397 35.6339 44.4397H35.2257C34.7495 44.4397 34.2733 44.6461 33.9332 44.9901C33.8652 45.059 33.7291 45.1278 33.5931 45.1278H33.1849C33.0489 45.1278 32.9128 45.059 32.8448 44.9901C32.5046 44.6461 32.0284 44.4397 31.5523 44.4397H31.1441C30.6679 44.4397 30.1917 44.6461 29.8516 44.9901L29.7155 45.1278H29.4434C30.1237 42.7197 32.3006 40.9996 34.8176 40.9996ZM28.6271 46.5038H30.2597L30.804 45.9534C30.872 45.8846 31.008 45.8158 31.1441 45.8158H31.5523C31.6883 45.8158 31.8244 45.8846 31.8924 45.9534C32.2325 46.2974 32.7087 46.5038 33.1849 46.5038H33.5931C34.0693 46.5038 34.5455 46.2974 34.8856 45.9534C34.9536 45.8846 35.0897 45.8158 35.2257 45.8158H35.6339C35.7699 45.8158 35.906 45.8846 35.974 45.9534C36.3142 46.2974 36.7904 46.5038 37.2665 46.5038H37.6747C38.1509 46.5038 38.6271 46.2974 38.9672 45.9534C39.0352 45.8846 39.1713 45.8158 39.3074 45.8158H39.7155C39.8516 45.8158 39.9876 45.8846 40.0557 45.9534C40.3958 46.2974 40.872 46.5038 41.3482 46.5038H41.7563C42.2325 46.5038 42.7087 46.2974 43.0489 45.9534C43.1169 45.8846 43.2529 45.8158 43.389 45.8158H43.7972C43.9332 45.8158 44.0693 45.8846 44.1373 45.9534L44.6815 46.5038H46.3142C46.7223 46.5038 46.9944 46.779 46.9944 47.1918C46.9944 47.6046 46.7223 47.8798 46.3142 47.8798H28.6271C28.2189 47.8798 27.9468 47.6046 27.9468 47.1918C27.9468 46.779 28.287 46.5038 28.6271 46.5038ZM40.1917 56.1361H34.8176C32.3006 56.1361 30.1237 54.416 29.5114 52.008H45.5659C44.8176 54.416 42.7087 56.1361 40.1917 56.1361ZM46.3142 50.6319H28.6271C28.2189 50.6319 27.9468 50.3567 27.9468 49.9439C27.9468 49.5311 28.2189 49.2559 28.6271 49.2559H46.3142C46.7223 49.2559 46.9944 49.5311 46.9944 49.9439C46.9944 50.3567 46.7223 50.6319 46.3142 50.6319Z" fill="#E67285"/>
<path d="M71.0079 45.2654C70.3957 42.0317 67.5386 39.6924 64.2733 39.6924H58.8991C55.6338 39.6924 52.7767 42.1005 52.1644 45.2654C51.3481 45.5406 50.7358 46.2974 50.7358 47.2606C50.7358 47.811 50.9399 48.2927 51.2801 48.6367C50.9399 48.9807 50.7358 49.4623 50.7358 50.0127C50.7358 50.9759 51.3481 51.7328 52.1644 52.008C52.7767 55.2417 55.6338 57.5809 58.8991 57.5809H64.2733C67.5386 57.5809 70.3957 55.1729 71.0079 52.008C71.8243 51.7328 72.4365 50.9759 72.4365 50.0127C72.4365 49.4623 72.2324 48.9807 71.8923 48.6367C72.2324 48.2927 72.4365 47.811 72.4365 47.2606C72.4365 46.2974 71.8243 45.4718 71.0079 45.2654ZM58.8991 40.9996H64.2733C66.7903 40.9996 68.9671 42.7197 69.5794 45.1278H69.3073L69.1712 44.9901C68.8311 44.6461 68.3549 44.4397 67.8787 44.4397H67.4705C66.9943 44.4397 66.5182 44.6461 66.178 44.9901C66.11 45.059 65.9739 45.1278 65.8379 45.1278H65.4297C65.2937 45.1278 65.1576 45.059 65.0896 44.9901C64.7494 44.6461 64.2733 44.4397 63.7971 44.4397H63.3889C62.9127 44.4397 62.4365 44.6461 62.0964 44.9901C62.0284 45.059 61.8923 45.1278 61.7562 45.1278H61.3481C61.212 45.1278 61.076 45.059 61.0079 44.9901C60.6678 44.6461 60.1916 44.4397 59.7154 44.4397H59.3073C58.8311 44.4397 58.3549 44.6461 58.0148 44.9901C57.9467 45.059 57.8107 45.1278 57.6746 45.1278H57.2665C57.1304 45.1278 56.9943 45.059 56.9263 44.9901C56.5862 44.6461 56.11 44.4397 55.6338 44.4397H55.2256C54.7494 44.4397 54.2733 44.6461 53.9331 44.9901L53.7971 45.1278H53.525C54.2052 42.7197 56.3821 40.9996 58.8991 40.9996ZM52.7086 46.5038H54.3413L54.8855 45.9534C54.9535 45.8846 55.0896 45.8158 55.2256 45.8158H55.6338C55.7699 45.8158 55.9059 45.8846 55.9739 45.9534C56.3141 46.2974 56.7903 46.5038 57.2665 46.5038H57.6746C58.1508 46.5038 58.627 46.2974 58.9671 45.9534C59.0352 45.8846 59.1712 45.8158 59.3073 45.8158H59.7154C59.8515 45.8158 59.9875 45.8846 60.0556 45.9534C60.3957 46.2974 60.8719 46.5038 61.3481 46.5038H61.7562C62.2324 46.5038 62.7086 46.2974 63.0488 45.9534C63.1168 45.8846 63.2528 45.8158 63.3889 45.8158H63.7971C63.9331 45.8158 64.0692 45.8846 64.1372 45.9534C64.4773 46.2974 64.9535 46.5038 65.4297 46.5038H65.8379C66.3141 46.5038 66.7903 46.2974 67.1304 45.9534C67.1984 45.8846 67.3345 45.8158 67.4705 45.8158H67.8787C68.0147 45.8158 68.1508 45.8846 68.2188 45.9534L68.763 46.5038H70.3957C70.8039 46.5038 71.076 46.779 71.076 47.1918C71.076 47.6046 70.8039 47.8798 70.3957 47.8798H52.7086C52.3005 47.8798 52.0284 47.6046 52.0284 47.1918C52.0284 46.779 52.3685 46.5038 52.7086 46.5038ZM64.2733 56.1361H58.8991C56.3821 56.1361 54.2052 54.416 53.593 52.008H69.6474C68.9671 54.416 66.7903 56.1361 64.2733 56.1361ZM70.3957 50.6319H52.7086C52.3005 50.6319 52.0284 50.3567 52.0284 49.9439C52.0284 49.5311 52.3005 49.2559 52.7086 49.2559H70.3957C70.8039 49.2559 71.076 49.5311 71.076 49.9439C71.076 50.3567 70.8039 50.6319 70.3957 50.6319Z" fill="#E67285"/>
</svg>
