<svg width="100" height="100" viewBox="0 0 100 100" fill="none" xmlns="http://www.w3.org/2000/svg">
<circle cx="50" cy="50" r="50" fill="white"/>
<path d="M77.2521 60.6576C76.4778 56.5928 72.897 53.6895 68.7354 53.6895H61.9609C57.7994 53.6895 54.2185 56.6896 53.4443 60.6576C52.3797 60.9479 51.6055 61.9157 51.6055 63.0771C51.6055 63.7545 51.8958 64.3352 52.2829 64.8191C51.8958 65.303 51.6055 65.8837 51.6055 66.5611C51.6055 67.7225 52.3797 68.6903 53.4443 68.9806C54.2185 73.0454 57.7994 75.9487 61.9609 75.9487H68.7354C72.897 75.9487 76.4778 72.9486 77.2521 68.9806C78.3166 68.6903 79.0909 67.7225 79.0909 66.5611C79.0909 65.8837 78.8005 65.303 78.4134 64.8191C78.8005 64.3352 79.0909 63.7545 79.0909 63.0771C79.0909 62.0125 78.3166 60.9479 77.2521 60.6576ZM61.9609 55.4315H68.7354C71.9292 55.4315 74.639 57.5606 75.51 60.5608H75.2197L75.0261 60.3672C74.5422 59.8833 73.9615 59.6898 73.3809 59.6898H72.897C72.3163 59.6898 71.7356 59.8833 71.2517 60.3672C71.1549 60.464 70.9614 60.5608 70.8646 60.5608H70.3807C70.1871 60.5608 70.0904 60.464 69.9936 60.3672C69.5097 59.8833 68.929 59.6898 68.3483 59.6898H67.8644C67.2838 59.6898 66.7031 59.8833 66.2192 60.3672C66.1224 60.464 65.9288 60.5608 65.8321 60.5608H65.3482C65.1546 60.5608 65.0578 60.464 64.961 60.3672C64.4772 59.8833 63.8965 59.6898 63.3158 59.6898H62.8319C62.2512 59.6898 61.6705 59.8833 61.1866 60.3672C61.0899 60.464 60.8963 60.5608 60.7995 60.5608H60.3156C60.1221 60.5608 60.0253 60.464 59.9285 60.3672C59.4446 59.8833 58.8639 59.6898 58.2833 59.6898H57.7994C57.2187 59.6898 56.638 59.8833 56.1541 60.3672L55.5734 60.5608H55.2831C56.0573 57.5606 58.7672 55.4315 61.9609 55.4315ZM54.2185 62.3028H56.2509L56.9283 61.6254C57.0251 61.5286 57.2187 61.4318 57.3155 61.4318H57.7994C57.9929 61.4318 58.0897 61.5286 58.1865 61.6254C58.6704 62.1093 59.2511 62.3028 59.8317 62.3028H60.4124C60.9931 62.3028 61.5738 62.1093 62.0577 61.6254C62.1544 61.5286 62.348 61.4318 62.4448 61.4318H62.9287C63.1222 61.4318 63.219 61.5286 63.3158 61.6254C63.7997 62.1093 64.3804 62.3028 64.961 62.3028H65.4449C66.0256 62.3028 66.6063 62.1093 67.0902 61.6254C67.187 61.5286 67.3805 61.4318 67.4773 61.4318H68.1548C68.3483 61.4318 68.4451 61.5286 68.5419 61.6254C69.0258 62.1093 69.6065 62.3028 70.1871 62.3028H70.671C71.2517 62.3028 71.8324 62.1093 72.3163 61.6254C72.4131 61.5286 72.6066 61.4318 72.7034 61.4318H73.1873C73.3809 61.4318 73.4776 61.5286 73.5744 61.6254L74.2519 62.3028H76.2843C76.7682 62.3028 77.1553 62.69 77.1553 63.1739C77.1553 63.6577 76.7682 64.0449 76.2843 64.0449H54.2185C53.7346 64.0449 53.3475 63.6577 53.3475 63.1739C53.3475 62.69 53.7346 62.3028 54.2185 62.3028ZM68.7354 74.3035H61.9609C58.7672 74.3035 56.0573 72.1743 55.1863 69.1742H75.4132C74.639 72.1743 71.9292 74.3035 68.7354 74.3035ZM76.4778 67.4321H54.2185C53.7346 67.4321 53.3475 67.045 53.3475 66.5611C53.3475 66.0772 53.7346 65.6901 54.2185 65.6901H76.5746C77.0585 65.6901 77.4456 66.0772 77.4456 66.5611C77.3488 67.045 76.9617 67.4321 76.4778 67.4321Z" fill="#57B6BB"/>
<path d="M52.4768 69.4047H48.9927V44.4443H60.3159V52.8554C60.6063 52.8554 60.8966 52.8554 61.1869 52.8554C61.5741 52.8554 61.8644 52.8554 62.1547 52.9522V44.5411H63.9935C64.4774 44.5411 64.9613 44.0572 64.9613 43.5733V34.9599C64.9613 34.476 64.4774 33.9921 63.9935 33.9921H53.251C54.122 33.0243 54.7027 31.6694 54.7027 30.2177C54.7027 27.1208 52.1864 24.6045 49.0895 24.6045C47.2507 24.6045 45.6054 25.4755 44.6376 26.8304C43.5731 24.8948 41.5407 23.6367 39.218 23.6367C35.8307 23.6367 33.1209 26.3465 33.1209 29.7338C33.1209 31.3791 33.7983 32.8308 34.8629 33.9921H24.6043C24.1204 33.9921 23.6365 34.476 23.6365 34.9599V43.3798C23.6365 43.8637 24.1204 44.3476 24.6043 44.3476H26.4431V70.2757C26.4431 70.7596 26.927 71.2435 27.4109 71.2435H53.1542C52.8639 70.6628 52.6703 70.0822 52.4768 69.4047ZM63.1225 35.9277V42.5087H48.9927V35.9277H63.1225ZM45.3151 30.3145C45.3151 28.1854 46.9603 26.5401 49.0895 26.5401C51.2186 26.5401 52.8639 28.1854 52.8639 30.3145C52.8639 32.4437 51.2186 34.0889 49.0895 34.0889H45.3151V30.3145ZM39.1212 25.5723C41.4439 25.5723 43.3795 27.4111 43.3795 29.8306V34.0889H39.1212C36.7985 34.0889 34.8629 32.2501 34.8629 29.8306C34.9597 27.5079 36.7985 25.5723 39.1212 25.5723ZM39.6051 69.4047H28.3787V44.4443H39.7019V69.4047H39.6051ZM39.6051 42.5087H25.4753V35.9277H39.6051V42.5087ZM47.1539 69.4047H41.5407V44.4443H47.1539V69.4047ZM47.1539 42.5087H41.5407V35.9277H47.1539V42.5087Z" fill="#57B6BB"/>
</svg>
