<svg width="45" height="35" viewBox="0 0 45 35" fill="none" xmlns="http://www.w3.org/2000/svg">
<path d="M0 25.6352V8.44628C0 8.19226 0.169349 7.93823 0.338698 7.85356H0.423372L17.0196 0.0635059C17.2736 -0.0211686 17.5276 -0.0211686 17.697 0.0635059L34.2932 7.85356H34.3778C34.5472 7.93823 34.7165 8.19226 34.7165 8.44628V25.6352C34.7165 25.8892 34.5472 26.1432 34.2932 26.3126L17.7816 34.1026C17.6123 34.1873 17.4429 34.1873 17.2736 34.1873H17.1889H17.1042L0.423372 26.3126C0.169349 26.1432 0 25.8892 0 25.6352Z" fill="#E9D4C6"/>
<path d="M0 25.6352V8.44628C0 8.19226 0.169349 7.93823 0.338698 7.85356H0.423372L17.0196 0.0635059C17.2736 -0.0211686 17.5276 -0.0211686 17.697 0.0635059L34.2932 7.85356H34.3778C34.5472 7.93823 34.7165 8.19226 34.7165 8.44628V25.6352C34.7165 25.8892 34.5472 26.1432 34.2932 26.3126L17.7816 34.1026C17.6123 34.1873 17.4429 34.1873 17.2736 34.1873H17.1889H17.1042L0.423372 26.3126C0.169349 26.1432 0 25.8892 0 25.6352ZM17.3583 1.50297L2.54023 8.44628L7.282 10.6478L22.1 3.70451L17.3583 1.50297ZM17.3583 15.3896L32.1763 8.44628L27.1805 6.07539L12.3625 13.0187L17.3583 15.3896ZM10.5843 12.2566L25.4023 5.31332L23.8782 4.55125L9.06017 11.4946L10.5843 12.2566ZM9.82224 13.5267L8.04408 12.68V19.6233L9.82224 20.5547V13.5267ZM33.1077 9.63172L18.1203 16.6597V32.2398L33.1077 25.2118V9.63172ZM1.52414 25.2118L16.5962 32.1551V16.6597L11.4311 14.2041V21.6555C11.4311 22.0789 11.0924 22.4176 10.669 22.4176C10.5843 22.4176 10.415 22.4176 10.3303 22.3329L6.94331 20.6394C6.68928 20.4701 6.51993 20.3007 6.51993 19.962V11.8333L1.60881 9.54705V25.2118H1.52414Z" fill="black"/>
<path d="M22.0157 23.6033C22.1003 23.0106 22.439 22.5026 23.0318 22.2485C23.1164 22.1639 23.2858 22.1639 23.3705 22.0792C23.4551 21.9945 23.4551 21.8252 23.4551 21.6558C23.4551 21.3171 23.7092 20.9784 23.8785 20.6397C24.6406 19.5389 25.4026 18.3535 26.5034 17.6761C27.1808 17.2527 27.9429 16.9987 28.705 16.8294C30.6525 16.3213 32.6 16.152 34.6322 16.3213C36.5797 16.5753 38.5272 17.2527 40.0513 18.5229C40.6441 19.0309 41.2368 19.6236 41.4908 20.3857C41.6601 21.0631 41.6602 21.9098 42.2529 22.3332C42.5069 22.5026 42.8456 22.5872 43.0996 22.8413C43.6923 23.2646 43.6923 24.2807 43.3536 24.9581C43.269 25.1275 43.1843 25.2968 43.1843 25.3815C43.0996 25.8895 43.6077 26.2282 43.6077 26.7363C43.6077 27.329 42.8456 27.6677 42.4222 28.0911C42.0835 28.4298 41.9142 28.8531 41.8295 29.3612C41.5755 30.2079 41.2368 31.1394 40.7287 31.8167C40.2207 32.5788 39.4586 33.2562 38.6119 33.4256C38.1038 33.5102 37.6805 33.5102 37.1724 33.5949C36.9184 33.6796 36.6644 33.7643 36.3257 33.7643C35.8176 33.8489 35.3096 33.8489 34.8015 33.8489C33.4467 33.8489 32.0073 33.7643 30.6525 33.7643C29.8057 33.7643 28.959 33.7643 28.1969 33.5102C27.1808 33.1715 26.3341 32.4941 25.572 31.7321C25.064 31.224 24.6406 30.6313 24.3866 29.8692C24.2172 29.1918 24.1325 28.3451 23.5398 27.9217C23.2858 27.7524 23.0318 27.7524 22.8624 27.583C22.5237 27.329 22.3544 26.821 22.3544 26.3976C22.3544 25.8895 22.6931 25.4662 22.6084 24.9581C22.439 24.5347 21.931 24.196 22.0157 23.6033Z" fill="#9EBFFF"/>
<path d="M22.7776 21.825C21.9308 22.079 21.2534 22.9257 21.2534 23.8571C21.2534 24.4499 21.5074 24.8732 21.8461 25.2966C21.5074 25.6353 21.2534 26.1434 21.2534 26.7361C21.2534 27.6675 21.9308 28.5142 22.7776 28.7683C23.455 32.1552 26.4186 34.6108 29.8902 34.6108H35.5634C39.0351 34.6108 41.9987 32.1552 42.6761 28.7683C43.5228 28.5142 44.2002 27.6675 44.2002 26.7361C44.2002 26.1434 43.9462 25.72 43.6075 25.2966C43.9462 24.9579 44.2002 24.4499 44.2002 23.8571C44.2002 22.9257 43.5228 22.079 42.6761 21.825C41.9987 18.438 39.0351 15.9824 35.5634 15.9824H29.9749C26.4186 15.9824 23.455 18.438 22.7776 21.825ZM35.5634 33.0867H29.9749C27.35 33.0867 25.0638 31.3085 24.3864 28.7683H41.2366C40.4745 31.3085 38.1883 33.0867 35.5634 33.0867ZM42.7607 26.6514C42.7607 27.0748 42.422 27.3288 42.0833 27.3288H23.455C23.0316 27.3288 22.7776 26.9901 22.7776 26.6514C22.7776 26.3127 23.1163 25.974 23.455 25.974H41.9987C42.422 25.974 42.7607 26.3127 42.7607 26.6514ZM40.3052 23.0951H41.9987C42.422 23.0951 42.6761 23.4338 42.6761 23.7725C42.6761 24.1112 42.422 24.5345 41.9987 24.5345H23.455C23.0316 24.5345 22.7776 24.1958 22.7776 23.8571C22.7776 23.5185 23.1163 23.1798 23.455 23.1798H25.1484L25.7412 22.587C25.8258 22.5024 25.9952 22.4177 26.0799 22.4177H26.5032C26.6726 22.4177 26.7573 22.5024 26.8419 22.587C27.1806 22.9257 27.6887 23.1798 28.1967 23.1798H28.6201C29.1281 23.1798 29.6362 23.0104 29.9749 22.587C30.0596 22.5024 30.2289 22.4177 30.3136 22.4177H30.737C30.9063 22.4177 30.991 22.5024 31.0757 22.587C31.4144 22.9257 31.9224 23.1798 32.4304 23.1798H32.8538C33.3619 23.1798 33.8699 23.0104 34.2086 22.587C34.2933 22.5024 34.4626 22.4177 34.5473 22.4177H34.9707C35.14 22.4177 35.2247 22.5024 35.3094 22.587C35.6481 22.9257 36.1561 23.1798 36.6642 23.1798H37.2569C37.7649 23.1798 38.273 23.0104 38.6117 22.587C38.6964 22.5024 38.8657 22.4177 38.9504 22.4177H39.3738C39.5431 22.4177 39.6278 22.5024 39.7125 22.587L40.3052 23.0951ZM35.5634 17.4219C38.1883 17.4219 40.4745 19.2001 41.1519 21.7403H40.8979L40.7285 21.5709C40.3898 21.2322 39.8818 20.9782 39.3738 20.9782H38.9504C38.4423 20.9782 37.9343 21.1476 37.5956 21.5709C37.5109 21.6556 37.3416 21.7403 37.2569 21.7403H36.8335C36.6642 21.7403 36.5795 21.6556 36.4948 21.5709C36.1561 21.2322 35.6481 20.9782 35.14 20.9782H34.7167C34.2086 20.9782 33.7006 21.1476 33.3619 21.5709C33.2772 21.6556 33.1078 21.7403 33.0232 21.7403H32.5998C32.4304 21.7403 32.3458 21.6556 32.2611 21.5709C31.9224 21.2322 31.4144 20.9782 30.9063 20.9782H30.4829C29.9749 20.9782 29.4668 21.1476 29.1281 21.5709C29.0435 21.6556 28.8741 21.7403 28.7894 21.7403H28.3661C28.1967 21.7403 28.112 21.6556 28.0274 21.5709C27.6887 21.2322 27.1806 20.9782 26.6726 20.9782H26.2492C25.7412 20.9782 25.2331 21.1476 24.8944 21.5709L24.5557 21.6556H24.3017C24.9791 19.2001 27.2653 17.3372 29.8902 17.3372H35.5634V17.4219Z" fill="black"/>
</svg>
