<svg width="100" height="100" viewBox="0 0 100 100" fill="none" xmlns="http://www.w3.org/2000/svg">
<circle cx="50" cy="50" r="50" fill="white"/>
<path d="M70.4906 38.2789C71.154 33.1769 68.9278 28.5234 64.5422 25.8356C64.1397 25.585 63.7206 25.3459 63.2961 25.1142C56.5501 21.4324 48.4967 20.7064 41.201 23.1214C33.8064 25.5689 27.9296 30.833 24.6528 37.9433C18.8342 50.5805 23.3364 65.6923 35.1251 73.094C35.6227 73.4069 36.127 73.7028 36.633 73.9789C36.9978 74.1781 37.3635 74.3661 37.7271 74.5438C42.3498 76.8088 47.6587 76.1737 51.5805 72.8862C55.7025 69.4305 57.3275 64.0302 55.8206 58.7913C55.8206 58.7913 55.8206 58.7913 55.8202 58.7898C55.1636 56.5154 55.2787 54.541 56.162 52.9226C57.0426 51.3092 58.6392 50.1472 60.9088 49.4686C66.1238 47.9062 69.7953 43.6189 70.4906 38.2789ZM54.1261 51.8114C52.9558 53.9557 52.7712 56.5916 53.5924 59.4344C54.841 63.7775 53.4988 68.251 50.0906 71.1079C46.8324 73.839 42.5925 74.3453 38.7457 72.46C37.9478 72.071 37.1424 71.6224 36.3594 71.1305C25.554 64.3454 21.4275 50.4954 26.7602 38.9141C29.7644 32.3931 35.1521 27.5665 41.9297 25.3228C48.6176 23.1089 56.0006 23.7749 62.1849 27.1501C62.5697 27.3601 62.9501 27.5755 63.3234 27.8089C66.9135 30.0083 68.733 33.8115 68.1898 37.9792C67.6157 42.3997 64.5703 45.9513 60.2442 47.2467C57.4091 48.094 55.2937 49.6721 54.1261 51.8114Z" fill="#9FCE9E"/>
<path d="M61.3903 28.6078C59.1636 27.3924 56.3622 28.2156 55.1469 30.4423C53.9315 32.6691 54.7552 35.4695 56.982 36.6848C59.2088 37.9002 62.0086 37.0775 63.2239 34.8507C64.4393 32.6239 63.6171 29.8231 61.3903 28.6078ZM58.0932 34.6489C56.9887 34.0461 56.58 32.658 57.1828 31.5535C57.7856 30.4491 59.1747 30.0409 60.2792 30.6437C61.3836 31.2465 61.7908 32.6351 61.188 33.7395C60.5852 34.844 59.1976 35.2517 58.0932 34.6489Z" fill="#9FCE9E"/>
<path d="M42.946 62.4027C40.7192 61.1873 37.9184 62.0095 36.7031 64.2363C35.4877 66.4631 36.3109 69.2644 38.5377 70.4797C40.7645 71.6951 43.5648 70.8714 44.7801 68.6446C45.9955 66.4178 45.1728 63.618 42.946 62.4027ZM39.6488 68.4438C38.5444 67.841 38.1362 66.4519 38.739 65.3474C39.3418 64.243 40.7304 63.8358 41.8348 64.4386C42.9393 65.0414 43.347 66.429 42.7442 67.5334C42.1414 68.6379 40.7533 69.0466 39.6488 68.4438Z" fill="#9FCE9E"/>
<path d="M37.1053 42.5255C38.3206 40.2987 37.4985 37.4979 35.2717 36.2826C33.0449 35.0672 30.2436 35.8904 29.0282 38.1172C27.8129 40.3439 28.6366 43.1443 30.8634 44.3596C33.0901 45.575 35.8899 44.7523 37.1053 42.5255ZM31.9745 42.3237C30.8701 41.7209 30.4614 40.3328 31.0641 39.2283C31.6669 38.1239 33.0561 37.7157 34.1605 38.3185C35.265 38.9213 35.6722 40.3099 35.0694 41.4143C34.4666 42.5188 33.079 42.9265 31.9745 42.3237Z" fill="#9FCE9E"/>
<path d="M30.1975 50.5556C27.7639 51.2724 26.3657 53.8342 27.0805 56.2667C27.4263 57.4463 28.2123 58.4198 29.2909 59.0085C30.3695 59.5972 31.613 59.7301 32.7916 59.3838C33.9702 59.0374 34.9442 58.2529 35.5328 57.1744C36.1215 56.0958 36.256 54.8518 35.9086 53.6727C35.1934 51.2386 32.6316 49.8404 30.1975 50.5556ZM32.1378 57.1587C30.9669 57.5027 29.6497 56.7838 29.3056 55.6129C28.9511 54.4066 29.6445 53.1362 30.8514 52.7807C32.0581 52.4278 33.3276 53.1206 33.6836 54.3265C33.8556 54.9119 33.7888 55.5284 33.4969 56.0632C33.205 56.598 32.7233 56.9866 32.1378 57.1587Z" fill="#9FCE9E"/>
<path d="M43.239 26.6614C40.8065 27.3762 39.4083 29.938 40.122 32.3725C40.4796 33.5896 41.2996 34.548 42.3335 35.1123C43.3674 35.6766 44.6161 35.8472 45.8331 35.4896C47.0127 35.1438 47.9862 34.3578 48.5749 33.2792C49.1636 32.2006 49.2975 30.9576 48.9502 29.7785C48.2586 27.4192 45.5974 25.9668 43.239 26.6614ZM45.1793 33.2645C43.9715 33.6194 42.702 32.9265 42.3471 31.7187C41.9932 30.5114 42.6866 29.241 43.8929 28.8865C44.4783 28.7145 45.0948 28.7813 45.6296 29.0732C46.1644 29.3651 46.553 29.8468 46.7251 30.4323C46.8971 31.0178 46.8309 31.6332 46.539 32.168C46.2471 32.7028 45.7648 33.0924 45.1793 33.2645Z" fill="#9FCE9E"/>
<path d="M75.5928 54.2454L77.2288 48.5866C78.3049 48.188 79.2547 47.4344 79.8461 46.3508C80.9486 44.3308 80.5738 38.1525 80.4873 36.9351C80.4326 36.1466 79.4652 35.6212 78.7735 35.9997C77.7023 36.5866 72.3049 39.6132 71.2024 41.6332C70.6109 42.717 70.4907 43.9236 70.7377 45.0443L66.8636 49.4812C66.8312 49.5185 66.8223 49.568 66.7952 49.6083C66.7605 49.6594 66.7119 49.6988 66.6855 49.7555L55.3584 74.1001C54.6502 75.6579 55.2729 77.5215 56.776 78.3419C58.28 79.1628 60.1843 78.6783 61.1172 77.2315L75.4584 54.5437C75.4918 54.4908 75.4987 54.4285 75.5229 54.3718C75.5422 54.3271 75.579 54.2929 75.5928 54.2454ZM59.1627 75.9829C58.8896 76.4054 58.3295 76.5474 57.8871 76.306C57.4448 76.0645 57.2622 75.5172 57.4659 75.0684L68.2672 51.8549L72.8371 54.349L59.1627 75.9829ZM69.5613 49.9188L71.8754 47.2688C72.2389 47.6746 72.6599 48.0386 73.1647 48.3141C73.6697 48.5897 74.2041 48.747 74.7423 48.8332L73.7654 52.2133L69.5613 49.9188ZM74.2758 46.2782C73.0153 45.5902 72.5503 44.0049 73.2383 42.7444C73.6935 41.9103 76.0905 40.2678 78.2675 38.9646C78.3501 41.5011 78.2659 44.4046 77.8102 45.2396C77.1222 46.5002 75.5364 46.9661 74.2758 46.2782Z" fill="#9FCE9E"/>
</svg>
