<svg width="100" height="100" viewBox="0 0 100 100" fill="none" xmlns="http://www.w3.org/2000/svg">
<circle cx="50" cy="50" r="50" fill="white"/>
<path d="M73.9102 49.8631V42.555H61.9432C62.2173 42.281 62.4913 42.0069 62.674 41.6415H64.3184C66.6021 41.6415 68.4292 39.8145 68.4292 37.5307C68.4292 35.2469 66.6021 33.4199 64.3184 33.4199H63.8616H62.9481H51.0724V37.9875C51.0724 39.8145 51.8032 41.3675 52.9908 42.555H42.8508V49.8631H44.6779V48.0361H45.9568L47.7838 51.6902H49.2454V74.528C49.2454 75.5328 48.4233 76.355 47.4184 76.355C46.4135 76.355 45.5914 75.5328 45.5914 74.528H43.7643C43.7643 76.5377 45.4087 78.182 47.4184 78.182C49.4281 78.182 51.0724 76.5377 51.0724 74.528V61.7388H65.6886V74.528C65.6886 76.5377 67.3329 78.182 69.3427 78.182C71.3524 78.182 72.9967 76.5377 72.9967 74.528H71.1697C71.1697 75.5328 70.3475 76.355 69.3427 76.355C68.3378 76.355 67.5156 75.5328 67.5156 74.528V51.6902H68.9773L70.8043 48.0361H72.0832V49.8631H73.9102ZM64.3184 35.2469C65.5973 35.2469 66.6021 36.2518 66.6021 37.5307C66.6021 38.8096 65.5973 39.8145 64.3184 39.8145H63.5875C63.7703 39.2664 63.8616 38.6269 63.8616 37.9875V35.2469H64.3184ZM52.8995 37.9875V35.2469H62.0346V37.9875C62.0346 40.5453 60.0249 42.555 57.467 42.555C54.9092 42.555 52.8995 40.5453 52.8995 37.9875ZM51.0724 59.9118V58.0847H65.6886V59.9118H51.0724ZM65.6886 56.2577H51.0724V51.6902H65.6886V56.2577ZM67.8811 49.8631H48.88L47.9665 48.0361H68.7946L67.8811 49.8631ZM44.6779 46.2091V44.3821H72.0832V46.2091H44.6779Z" fill="#8A8CDC"/>
<path d="M39.1967 75.4415C39.1967 75.9896 38.8313 76.355 38.2832 76.355C37.7351 76.355 37.3697 75.9896 37.3697 75.4415V60.8253H38.2832C39.2881 60.8253 40.1103 60.0031 40.1103 58.9983V57.1712C40.1103 56.1664 39.2881 55.3442 38.2832 55.3442H23.667L22.7535 36.1605C22.7535 34.6075 21.566 33.4199 20.013 33.4199C18.46 33.4199 17.2725 34.6075 17.2725 36.1605V37.074H19.0995V36.1605C19.0995 35.6123 19.4649 35.2469 20.013 35.2469C20.5611 35.2469 20.9265 35.6123 20.9265 36.1605L21.84 56.2577V60.8253H23.667V75.4415C23.667 75.9896 23.3016 76.355 22.7535 76.355C22.2054 76.355 21.84 75.9896 21.84 75.4415V74.528H20.013V75.4415C20.013 76.9944 21.2006 78.182 22.7535 78.182C24.3065 78.182 25.4941 76.9944 25.4941 75.4415V60.8253H35.5427V75.4415C35.5427 76.9944 36.7303 78.182 38.2832 78.182C39.8362 78.182 41.0238 76.9944 41.0238 75.4415V74.528H39.1967V75.4415ZM23.667 57.1712H38.2832V58.9983H23.667V57.1712Z" fill="#8A8CDC"/>
<path d="M53.8132 26.66C53.2651 27.2081 52.8997 28.0302 52.8997 28.8524C52.8997 29.6746 53.2651 30.4967 53.8132 31.0448L55.0007 32.2324L56.2797 30.9535L55.0921 29.7659C54.818 29.4919 54.7267 29.2178 54.7267 28.8524C54.7267 28.487 54.818 28.2129 55.0921 27.9389L55.6402 27.3908C56.1883 26.8427 56.5537 26.0205 56.5537 25.1984C56.5537 24.3762 56.1883 23.554 55.6402 23.0059L54.4526 21.8184L53.1737 23.0973L54.3613 24.2848C54.6353 24.5589 54.7267 24.8329 54.7267 25.1984C54.7267 25.5638 54.6353 25.8378 54.3613 26.1119L53.8132 26.66Z" fill="#8A8CDC"/>
<path d="M59.2941 26.66C58.746 27.2081 58.3806 28.0302 58.3806 28.8524C58.3806 29.6746 58.746 30.4967 59.2941 31.0448L60.4817 32.2324L61.7606 30.9535L60.573 29.7659C60.299 29.4919 60.2076 29.2178 60.2076 28.8524C60.2076 28.487 60.299 28.2129 60.573 27.9389L61.1212 27.3908C61.6693 26.8427 62.0347 26.0205 62.0347 25.1984C62.0347 24.3762 61.6693 23.554 61.1212 23.0059L59.9336 21.8184L58.6547 23.0973L59.8422 24.2848C60.1163 24.5589 60.2076 24.8329 60.2076 25.1984C60.2076 25.5638 60.1163 25.8378 59.8422 26.1119L59.2941 26.66Z" fill="#8A8CDC"/>
</svg>
