<svg width="24" height="24" viewBox="0 0 24 24" fill="none" xmlns="http://www.w3.org/2000/svg">
<path d="M12.1176 12.4706C14.4534 12.4706 16.3529 10.571 16.3529 8.23528C16.3529 5.89952 14.4534 4 12.1176 4C9.78185 4 7.88232 5.89952 7.88232 8.23528C7.88232 10.571 9.78185 12.4706 12.1176 12.4706ZM12.1176 6.11764C13.2855 6.11764 14.2352 7.0674 14.2352 8.23528C14.2352 9.40316 13.2855 10.3529 12.1176 10.3529C10.9497 10.3529 9.99996 9.40316 9.99996 8.23528C9.99996 7.0674 10.9497 6.11764 12.1176 6.11764Z" fill="black"/>
<path d="M17.9156 11.8249C17.4882 11.4308 16.7973 11.4308 16.3699 11.8249C14.0262 13.9857 10.2111 13.9857 7.86629 11.8249C7.43886 11.4308 6.74799 11.4308 6.32057 11.8249C5.89314 12.2189 5.89314 12.8559 6.32057 13.251C7.68045 14.5047 9.40435 15.2193 11.1818 15.4058L8.06524 18.2792C7.63782 18.6733 7.63782 19.3102 8.06524 19.7043C8.49266 20.0984 9.18353 20.0984 9.61096 19.7043L12.1176 17.3933L14.6242 19.7043C14.8373 19.9008 15.1172 19.9996 15.397 19.9996C15.6769 19.9996 15.9567 19.9008 16.1699 19.7043C16.5973 19.3102 16.5973 18.6733 16.1699 18.2792L13.0533 15.4058C14.8308 15.2193 16.5547 14.5047 17.9145 13.251C18.342 12.8569 18.342 12.2189 17.9156 11.8249Z" fill="black"/>
</svg>
