<svg width="64" height="51" viewBox="0 0 64 51" fill="none" xmlns="http://www.w3.org/2000/svg">
<path d="M40.2025 5.47839C39.6507 2.6262 37.0759 0.456055 34.1332 0.456055H29.2901C26.3474 0.456055 23.7725 2.6262 23.2208 5.47839C22.4238 5.72641 21.8721 6.40845 21.8721 7.27651C21.8721 7.77254 22.056 8.20657 22.3625 8.51659C22.056 8.82661 21.8721 9.26064 21.8721 9.75667C21.8721 10.6247 22.4238 11.3068 23.1595 11.5548C23.7112 14.469 26.2861 16.5771 29.2288 16.5771H34.0719C37.0146 16.5771 39.5894 14.407 40.1412 11.5548C40.8768 11.3068 41.4286 10.6247 41.4286 9.75667C41.4286 9.26064 41.2447 8.82661 40.9381 8.51659C41.2447 8.20657 41.4286 7.77254 41.4286 7.27651C41.4899 6.40845 40.9382 5.72641 40.2025 5.47839ZM29.2901 1.69614H34.1332C36.4015 1.69614 38.3633 3.24624 38.9151 5.41639H38.6698L38.5472 5.29238C38.2407 4.98236 37.8729 4.79634 37.3824 4.79634H37.0146C36.5854 4.79634 36.1563 4.98236 35.8498 5.29238C35.7885 5.35438 35.6659 5.41639 35.5432 5.41639H35.1754C35.0528 5.41639 34.9302 5.35438 34.8689 5.29238C34.5624 4.98236 34.1945 4.79634 33.7041 4.79634H33.3362C32.9071 4.79634 32.478 4.98236 32.1714 5.29238C32.1101 5.35438 31.9875 5.41639 31.8649 5.41639H31.4971C31.3745 5.41639 31.2518 5.35438 31.1905 5.29238C30.884 4.98236 30.5162 4.79634 30.0257 4.79634H29.6579C29.2288 4.79634 28.7996 4.98236 28.4931 5.29238C28.4318 5.35438 28.3092 5.41639 28.1866 5.41639H27.8187C27.6961 5.41639 27.5735 5.35438 27.5122 5.29238C27.2057 4.98236 26.8378 4.79634 26.3474 4.79634H25.9796C25.5504 4.79634 25.1213 4.98236 24.8147 5.29238L24.6921 5.41639H24.4469C25.06 3.24624 27.0218 1.69614 29.2901 1.69614ZM23.7112 6.65647H25.1826L25.673 6.16043C25.7956 6.09843 25.9182 6.03643 25.9796 6.03643H26.3474C26.47 6.03643 26.5926 6.09843 26.6539 6.16043C26.9604 6.47046 27.3896 6.65647 27.8187 6.65647H28.1866C28.6157 6.65647 29.0448 6.47046 29.3514 6.16043C29.474 6.09843 29.5966 6.03643 29.6579 6.03643H30.0257C30.1483 6.03643 30.271 6.09843 30.3323 6.16043C30.6388 6.47046 31.0679 6.65647 31.4971 6.65647H31.8649C32.294 6.65647 32.7232 6.47046 33.0297 6.16043C33.1523 6.09843 33.2749 6.03643 33.3362 6.03643H33.7041C33.8267 6.03643 33.9493 6.09843 34.0106 6.16043C34.3171 6.47046 34.7463 6.65647 35.1754 6.65647H35.5432C35.9724 6.65647 36.4015 6.47046 36.7081 6.16043C36.8307 6.09843 36.9533 6.03643 37.0146 6.03643H37.3824C37.505 6.03643 37.6276 6.09843 37.6889 6.16043L38.1794 6.65647H39.6507C40.0186 6.65647 40.2638 6.90448 40.2638 7.27651C40.2638 7.64853 40.0186 7.89655 39.6507 7.89655H23.7112C23.3434 7.89655 23.0982 7.64853 23.0982 7.27651C23.0982 6.90448 23.4047 6.65647 23.7112 6.65647ZM34.1332 15.337H29.2901C27.0218 15.337 25.06 13.7869 24.5082 11.6168H38.9764C38.3633 13.7869 36.4015 15.337 34.1332 15.337ZM39.6507 10.3767H23.7112C23.3434 10.3767 23.0982 10.1287 23.0982 9.75667C23.0982 9.38465 23.3434 9.13663 23.7112 9.13663H39.6507C40.0186 9.13663 40.2638 9.38465 40.2638 9.75667C40.2638 10.1287 40.0186 10.3767 39.6507 10.3767Z" fill="#E67285"/>
<path d="M18.7054 39.3348C18.1537 36.4206 15.5788 34.3125 12.6361 34.3125H7.79299C4.85032 34.3125 2.27548 36.4826 1.72373 39.3348C0.926752 39.5829 0.375 40.2649 0.375 41.133C0.375 41.629 0.558917 42.063 0.865446 42.373C0.558917 42.6831 0.375 43.1171 0.375 43.6131C0.375 44.4812 0.926752 45.1632 1.66242 45.4112C2.21417 48.3254 4.78901 50.4336 7.73169 50.4336H12.5748C15.5175 50.4336 18.0924 48.2634 18.6441 45.4112C19.3798 45.1632 19.9315 44.4812 19.9315 43.6131C19.9315 43.1171 19.7476 42.6831 19.4411 42.373C19.7476 42.063 19.9315 41.629 19.9315 41.133C19.9928 40.2649 19.4411 39.5829 18.7054 39.3348ZM7.79299 35.5526H12.6361C14.9045 35.5526 16.8662 37.1027 17.418 39.2728H17.1728L17.0502 39.1488C16.7436 38.8388 16.3145 38.6528 15.8854 38.6528H15.5175C15.0884 38.6528 14.6592 38.8388 14.3527 39.1488C14.2914 39.2108 14.1688 39.2728 14.0462 39.2728H13.6783C13.5557 39.2728 13.4331 39.2108 13.3718 39.1488C13.0653 38.8388 12.6361 38.6528 12.207 38.6528H11.8392C11.41 38.6528 10.9809 38.8388 10.6744 39.1488C10.6131 39.2108 10.4904 39.2728 10.3678 39.2728H10C9.87739 39.2728 9.75478 39.2108 9.69347 39.1488C9.38694 38.8388 8.9578 38.6528 8.52866 38.6528H8.16083C7.73169 38.6528 7.30255 38.8388 6.99602 39.1488C6.93471 39.2108 6.8121 39.2728 6.68949 39.2728H6.32166C6.19905 39.2728 6.07643 39.2108 6.01513 39.1488C5.7086 38.8388 5.27946 38.6528 4.85032 38.6528H4.48248C4.05334 38.6528 3.6242 38.8388 3.31768 39.1488L3.19506 39.2728H2.94984C3.5629 37.1027 5.52468 35.5526 7.79299 35.5526ZM2.21417 40.5129H3.68551L4.17596 40.0169C4.23726 39.9549 4.35987 39.8929 4.48248 39.8929H4.85032C4.97293 39.8929 5.09554 39.9549 5.15685 40.0169C5.46338 40.3269 5.89252 40.5129 6.32166 40.5129H6.68949C7.11863 40.5129 7.54777 40.3269 7.8543 40.0169C7.91561 39.9549 8.03822 39.8929 8.16083 39.8929H8.52866C8.65127 39.8929 8.77389 39.9549 8.83519 40.0169C9.14172 40.3269 9.57086 40.5129 10 40.5129H10.3678C10.797 40.5129 11.2261 40.3269 11.5326 40.0169C11.594 39.9549 11.7166 39.8929 11.8392 39.8929H12.207C12.3296 39.8929 12.4522 39.9549 12.5135 40.0169C12.8201 40.3269 13.2492 40.5129 13.6783 40.5129H14.0462C14.4753 40.5129 14.9045 40.3269 15.211 40.0169C15.2723 39.9549 15.3949 39.8929 15.5175 39.8929H15.8854C16.008 39.8929 16.1306 39.9549 16.1919 40.0169L16.6823 40.5129H18.1537C18.5215 40.5129 18.7667 40.7609 18.7667 41.133C18.7667 41.505 18.5215 41.753 18.1537 41.753H2.21417C1.84634 41.753 1.60111 41.505 1.60111 41.133C1.60111 40.7609 1.84634 40.5129 2.21417 40.5129ZM12.5748 49.1935H7.73169C5.46338 49.1935 3.50159 47.6434 2.94984 45.4732H17.418C16.8049 47.6434 14.8432 49.1935 12.5748 49.1935ZM18.1537 44.2332H2.21417C1.84634 44.2332 1.60111 43.9851 1.60111 43.6131C1.60111 43.2411 1.84634 42.9931 2.21417 42.9931H18.1537C18.5215 42.9931 18.7667 43.2411 18.7667 43.6131C18.7667 43.9231 18.5215 44.2332 18.1537 44.2332Z" fill="#E67285"/>
<path d="M40.4136 39.3348C39.8619 36.4206 37.287 34.3125 34.3444 34.3125H29.5012C26.5585 34.3125 23.9837 36.4826 23.432 39.3348C22.6963 39.5829 22.1445 40.2649 22.1445 41.133C22.1445 41.629 22.3284 42.063 22.635 42.373C22.3284 42.6831 22.1445 43.1171 22.1445 43.6131C22.1445 44.4812 22.6963 45.1632 23.432 45.4112C23.9837 48.3254 26.5585 50.4336 29.5012 50.4336H34.3444C37.287 50.4336 39.8619 48.2634 40.4136 45.4112C41.1493 45.1632 41.7011 44.4812 41.7011 43.6131C41.7011 43.1171 41.5171 42.6831 41.2106 42.373C41.5171 42.063 41.7011 41.629 41.7011 41.133C41.7011 40.2649 41.1493 39.5829 40.4136 39.3348ZM29.5012 35.5526H34.3444C36.6127 35.5526 38.5745 37.1027 39.1262 39.2728H38.881L38.7584 39.1488C38.4519 38.8388 38.0227 38.6528 37.5936 38.6528H37.2257C36.7966 38.6528 36.3675 38.8388 36.0609 39.1488C35.9996 39.2108 35.877 39.2728 35.7544 39.2728H35.3866C35.264 39.2728 35.1413 39.2108 35.08 39.1488C34.7735 38.8388 34.3444 38.6528 33.9152 38.6528H33.5474C33.1183 38.6528 32.6891 38.8388 32.3826 39.1488C32.3213 39.2108 32.1987 39.2728 32.0761 39.2728H31.7082C31.5856 39.2728 31.463 39.2108 31.4017 39.1488C31.0952 38.8388 30.666 38.6528 30.2369 38.6528H29.8691C29.4399 38.6528 29.0108 38.8388 28.7042 39.1488C28.6429 39.2108 28.5203 39.2728 28.3977 39.2728H28.0299C27.9073 39.2728 27.7847 39.2108 27.7234 39.1488C27.4168 38.8388 26.9877 38.6528 26.5585 38.6528H26.1907C25.7616 38.6528 25.3324 38.8388 25.0259 39.1488L24.9033 39.2728H24.6581C25.2711 37.1027 27.2329 35.5526 29.5012 35.5526ZM23.9224 40.5129H25.3937L25.8842 40.0169C25.9455 39.9549 26.0681 39.8929 26.1907 39.8929H26.5585C26.6812 39.8929 26.8038 39.9549 26.8651 40.0169C27.1716 40.3269 27.6007 40.5129 28.0299 40.5129H28.3977C28.8269 40.5129 29.256 40.3269 29.5625 40.0169C29.6238 39.9549 29.7464 39.8929 29.8691 39.8929H30.2369C30.3595 39.8929 30.4821 39.9549 30.5434 40.0169C30.8499 40.3269 31.2791 40.5129 31.7082 40.5129H32.0761C32.5052 40.5129 32.9343 40.3269 33.2409 40.0169C33.3022 39.9549 33.4248 39.8929 33.5474 39.8929H33.9152C34.0378 39.8929 34.1605 39.9549 34.2218 40.0169C34.5283 40.3269 34.9574 40.5129 35.3866 40.5129H35.7544C36.1835 40.5129 36.6127 40.3269 36.9192 40.0169C36.9805 39.9549 37.1031 39.8929 37.2257 39.8929H37.5936C37.7162 39.8929 37.8388 39.9549 37.9001 40.0169L38.3906 40.5129H39.8619C40.2297 40.5129 40.4749 40.7609 40.4749 41.133C40.4749 41.505 40.2297 41.753 39.8619 41.753H23.9224C23.5546 41.753 23.3093 41.505 23.3093 41.133C23.3093 40.7609 23.6159 40.5129 23.9224 40.5129ZM34.3444 49.1935H29.5012C27.2329 49.1935 25.2711 47.6434 24.7194 45.4732H39.1875C38.5745 47.6434 36.6127 49.1935 34.3444 49.1935ZM39.8619 44.2332H23.9224C23.5546 44.2332 23.3093 43.9851 23.3093 43.6131C23.3093 43.2411 23.5546 42.9931 23.9224 42.9931H39.8619C40.2297 42.9931 40.4749 43.2411 40.4749 43.6131C40.4749 43.9231 40.2297 44.2332 39.8619 44.2332Z" fill="#E67285"/>
<path d="M62.0953 39.3348C61.5435 36.4206 58.9687 34.3125 56.026 34.3125H51.1829C48.2402 34.3125 45.6653 36.4826 45.1136 39.3348C44.3779 39.5829 43.8262 40.2649 43.8262 41.133C43.8262 41.629 44.0101 42.063 44.3166 42.373C44.0101 42.6831 43.8262 43.1171 43.8262 43.6131C43.8262 44.4812 44.3779 45.1632 45.1136 45.4112C45.6653 48.3254 48.2402 50.4336 51.1829 50.4336H56.026C58.9687 50.4336 61.5435 48.2634 62.0953 45.4112C62.8309 45.1632 63.3827 44.4812 63.3827 43.6131C63.3827 43.1171 63.1988 42.6831 62.8923 42.373C63.1988 42.063 63.3827 41.629 63.3827 41.133C63.444 40.2649 62.8923 39.5829 62.0953 39.3348ZM51.1829 35.5526H56.026C58.2943 35.5526 60.2561 37.1027 60.8079 39.2728H60.5626L60.44 39.1488C60.1335 38.8388 59.7044 38.6528 59.2752 38.6528H58.9074C58.4782 38.6528 58.0491 38.8388 57.7426 39.1488C57.6813 39.2108 57.5587 39.2728 57.436 39.2728H57.0682C56.9456 39.2728 56.823 39.2108 56.7617 39.1488C56.4552 38.8388 56.026 38.6528 55.5969 38.6528H55.229C54.7999 38.6528 54.3708 38.8388 54.0642 39.1488C54.0029 39.2108 53.8803 39.2728 53.7577 39.2728H53.3899C53.2673 39.2728 53.1446 39.2108 53.0833 39.1488C52.7768 38.8388 52.3477 38.6528 51.9185 38.6528H51.5507C51.1216 38.6528 50.6924 38.8388 50.3859 39.1488C50.3246 39.2108 50.202 39.2728 50.0794 39.2728H49.7115C49.5889 39.2728 49.4663 39.2108 49.405 39.1488C49.0985 38.8388 48.6693 38.6528 48.2402 38.6528H47.8723C47.4432 38.6528 47.0141 38.8388 46.7075 39.1488L46.5849 39.2728H46.3397C46.9528 37.1027 48.9145 35.5526 51.1829 35.5526ZM45.6653 40.5129H47.1367L47.6271 40.0169C47.6884 39.9549 47.811 39.8929 47.9337 39.8929H48.3015C48.4241 39.8929 48.5467 39.9549 48.608 40.0169C48.9145 40.3269 49.3437 40.5129 49.7728 40.5129H50.1407C50.5698 40.5129 50.9989 40.3269 51.3055 40.0169C51.3668 39.9549 51.4894 39.8929 51.612 39.8929H51.9798C52.1024 39.8929 52.2251 39.9549 52.2864 40.0169C52.5929 40.3269 53.022 40.5129 53.4512 40.5129H53.819C54.2481 40.5129 54.6773 40.3269 54.9838 40.0169C55.0451 39.9549 55.1677 39.8929 55.2903 39.8929H55.6582C55.7808 39.8929 55.9034 39.9549 55.9647 40.0169C56.2712 40.3269 56.7004 40.5129 57.1295 40.5129H57.4973C57.9265 40.5129 58.3556 40.3269 58.6622 40.0169C58.7235 39.9549 58.8461 39.8929 58.9687 39.8929H59.3365C59.4591 39.8929 59.5817 39.9549 59.643 40.0169L60.1335 40.5129H61.6048C61.9727 40.5129 62.2179 40.7609 62.2179 41.133C62.2179 41.505 61.9727 41.753 61.6048 41.753H45.6653C45.2975 41.753 45.0523 41.505 45.0523 41.133C45.0523 40.7609 45.2975 40.5129 45.6653 40.5129ZM56.026 49.1935H51.1829C48.9145 49.1935 46.9528 47.6434 46.401 45.4732H60.8692C60.2561 47.6434 58.2943 49.1935 56.026 49.1935ZM61.6048 44.2332H45.6653C45.2975 44.2332 45.0523 43.9851 45.0523 43.6131C45.0523 43.2411 45.2975 42.9931 45.6653 42.9931H61.6048C61.9727 42.9931 62.2179 43.2411 62.2179 43.6131C62.2179 43.9231 61.9114 44.2332 61.6048 44.2332Z" fill="#E67285"/>
<path d="M29.5543 22.4032C29.0025 19.489 26.4277 17.3809 23.485 17.3809H18.6418C15.6992 17.3809 13.1243 19.551 12.5726 22.4032C11.8369 22.6512 11.2852 23.3333 11.2852 24.2013C11.2852 24.6973 11.4691 25.1314 11.7756 25.4414C11.4691 25.7514 11.2852 26.1854 11.2852 26.6815C11.2852 27.5495 11.8369 28.2316 12.5726 28.4796C13.1243 31.3938 15.6992 33.5019 18.6418 33.5019H23.485C26.4277 33.5019 29.0025 31.3318 29.5543 28.4796C30.2899 28.2316 30.8417 27.5495 30.8417 26.6815C30.8417 26.1854 30.6578 25.7514 30.3512 25.4414C30.6578 25.1314 30.8417 24.6973 30.8417 24.2013C30.8417 23.3333 30.2899 22.5892 29.5543 22.4032ZM18.6418 18.5589H23.485C25.7533 18.5589 27.7151 20.109 28.2668 22.2792H28.0216L27.899 22.1552C27.5925 21.8452 27.1633 21.6591 26.7342 21.6591H26.3664C25.9372 21.6591 25.5081 21.8452 25.2016 22.1552C25.1403 22.2172 25.0176 22.2792 24.895 22.2792H24.5272C24.4046 22.2792 24.282 22.2172 24.2207 22.1552C23.9141 21.8452 23.485 21.6591 23.0559 21.6591H22.688C22.2589 21.6591 21.8297 21.8452 21.5232 22.1552C21.4619 22.2172 21.3393 22.2792 21.2167 22.2792H20.8489C20.7262 22.2792 20.6036 22.2172 20.5423 22.1552C20.2358 21.8452 19.8067 21.6591 19.3775 21.6591H19.0097C18.5805 21.6591 18.1514 21.8452 17.8449 22.1552C17.7836 22.2172 17.661 22.2792 17.5383 22.2792H17.1705C17.0479 22.2792 16.9253 22.2172 16.864 22.1552C16.5574 21.8452 16.1283 21.6591 15.6992 21.6591H15.3313C14.9022 21.6591 14.4731 21.8452 14.1665 22.1552L14.0439 22.2792H13.7987C14.4117 20.109 16.3735 18.5589 18.6418 18.5589ZM13.063 23.5193H14.5344L15.0248 23.0232C15.0861 22.9612 15.2087 22.8992 15.3313 22.8992H15.6992C15.8218 22.8992 15.9444 22.9612 16.0057 23.0232C16.3122 23.3333 16.7414 23.5193 17.1705 23.5193H17.5383C17.9675 23.5193 18.3966 23.3333 18.7032 23.0232C18.7645 22.9612 18.8871 22.8992 19.0097 22.8992H19.3775C19.5001 22.8992 19.6227 22.9612 19.684 23.0232C19.9906 23.3333 20.4197 23.5193 20.8489 23.5193H21.2167C21.6458 23.5193 22.075 23.3333 22.3815 23.0232C22.4428 22.9612 22.5654 22.8992 22.688 22.8992H23.0559C23.1785 22.8992 23.3011 22.9612 23.3624 23.0232C23.6689 23.3333 24.0981 23.5193 24.5272 23.5193H24.895C25.3242 23.5193 25.7533 23.3333 26.0598 23.0232C26.1211 22.9612 26.2438 22.8992 26.3664 22.8992H26.7342C26.8568 22.8992 26.9794 22.9612 27.0407 23.0232L27.5312 23.5193H29.0025C29.3703 23.5193 29.6156 23.7673 29.6156 24.1393C29.6156 24.5113 29.3703 24.7594 29.0025 24.7594H13.063C12.6952 24.7594 12.45 24.5113 12.45 24.1393C12.45 23.7673 12.7565 23.5193 13.063 23.5193ZM23.485 32.1998H18.6418C16.3735 32.1998 14.4117 30.6497 13.86 28.4796H28.3282C27.6538 30.6497 25.7533 32.1998 23.485 32.1998ZM29.0025 27.2395H13.063C12.6952 27.2395 12.45 26.9915 12.45 26.6195C12.45 26.2475 12.6952 25.9994 13.063 25.9994H29.0025C29.3703 25.9994 29.6156 26.2475 29.6156 26.6195C29.6156 26.9915 29.3703 27.2395 29.0025 27.2395Z" fill="#E67285"/>
<path d="M51.2799 22.4032C50.7281 19.489 48.1533 17.3809 45.2106 17.3809H40.3674C37.4248 17.3809 34.8499 19.551 34.2982 22.4032C33.5625 22.6512 33.0107 23.3333 33.0107 24.2013C33.0107 24.6973 33.1947 25.1314 33.5012 25.4414C33.1947 25.7514 33.0107 26.1854 33.0107 26.6815C33.0107 27.5495 33.5625 28.2316 34.2982 28.4796C34.8499 31.3938 37.4248 33.5019 40.3674 33.5019H45.2106C48.1533 33.5019 50.7281 31.3318 51.2799 28.4796C52.0155 28.2316 52.5673 27.5495 52.5673 26.6815C52.5673 26.1854 52.3834 25.7514 52.0768 25.4414C52.3834 25.1314 52.5673 24.6973 52.5673 24.2013C52.5673 23.3333 52.0155 22.5892 51.2799 22.4032ZM40.3674 18.5589H45.2106C47.4789 18.5589 49.4407 20.109 49.9924 22.2792H49.7472L49.6246 22.1552C49.3181 21.8452 48.8889 21.6591 48.4598 21.6591H48.092C47.6628 21.6591 47.2337 21.8452 46.9271 22.1552C46.8658 22.2172 46.7432 22.2792 46.6206 22.2792H46.2528C46.1302 22.2792 46.0076 22.2172 45.9463 22.1552C45.6397 21.8452 45.2106 21.6591 44.7814 21.6591H44.4136C43.9845 21.6591 43.5553 21.8452 43.2488 22.1552C43.1875 22.2172 43.0649 22.2792 42.9423 22.2792H42.5744C42.4518 22.2792 42.3292 22.2172 42.2679 22.1552C41.9614 21.8452 41.5322 21.6591 41.1031 21.6591H40.7353C40.3061 21.6591 39.877 21.8452 39.5705 22.1552C39.5092 22.2172 39.3865 22.2792 39.2639 22.2792H38.8961C38.7735 22.2792 38.6509 22.2172 38.5896 22.1552C38.283 21.8452 37.8539 21.6591 37.4248 21.6591H37.0569C36.6278 21.6591 36.1986 21.8452 35.8921 22.1552L35.7695 22.2792H35.5243C36.1373 20.109 38.0991 18.5589 40.3674 18.5589ZM34.7886 23.5193H36.2599L36.7504 23.0232C36.8117 22.9612 36.9343 22.8992 37.0569 22.8992H37.4248C37.5474 22.8992 37.67 22.9612 37.7313 23.0232C38.0378 23.3333 38.467 23.5193 38.8961 23.5193H39.2639C39.6931 23.5193 40.1222 23.3333 40.4287 23.0232C40.49 22.9612 40.6127 22.8992 40.7353 22.8992H41.1031C41.2257 22.8992 41.3483 22.9612 41.4096 23.0232C41.7162 23.3333 42.1453 23.5193 42.5744 23.5193H42.9423C43.3714 23.5193 43.8006 23.3333 44.1071 23.0232C44.1684 22.9612 44.291 22.8992 44.4136 22.8992H44.7814C44.9041 22.8992 45.0267 22.9612 45.088 23.0232C45.3945 23.3333 45.8236 23.5193 46.2528 23.5193H46.6206C47.0498 23.5193 47.4789 23.3333 47.7854 23.0232C47.8467 22.9612 47.9693 22.8992 48.092 22.8992H48.4598C48.5824 22.8992 48.705 22.9612 48.7663 23.0232L49.2568 23.5193H50.7281C51.0959 23.5193 51.3412 23.7673 51.3412 24.1393C51.3412 24.5113 51.0959 24.7594 50.7281 24.7594H34.7886C34.4208 24.7594 34.1755 24.5113 34.1755 24.1393C34.1755 23.7673 34.4821 23.5193 34.7886 23.5193ZM45.2106 32.1998H40.3674C38.0991 32.1998 36.1373 30.6497 35.5856 28.4796H50.0537C49.4407 30.6497 47.4789 32.1998 45.2106 32.1998ZM50.7281 27.2395H34.7886C34.4208 27.2395 34.1755 26.9915 34.1755 26.6195C34.1755 26.2475 34.4208 25.9994 34.7886 25.9994H50.7281C51.0959 25.9994 51.3412 26.2475 51.3412 26.6195C51.3412 26.9915 51.0959 27.2395 50.7281 27.2395Z" fill="#E67285"/>
</svg>
