<svg width="50" height="50" viewBox="0 0 50 50" fill="none" xmlns="http://www.w3.org/2000/svg">
<path d="M47.543 17.2754L42.9749 10.8916V3.33636C42.9749 1.86546 41.8044 0.675781 40.3561 0.675781H9.68068C8.2329 0.675781 7.06192 1.86546 7.06192 3.33636V10.8916L2.49479 17.2754C-0.829378 21.9169 0.595542 25.7543 5.56598 26.3988V46.6638C5.56598 48.1347 6.73695 49.3244 8.18473 49.3244H41.853C43.3008 49.3244 44.4718 48.1347 44.4718 46.6638V26.3988C49.4412 25.7543 50.8666 21.9164 47.543 17.2754ZM8.93295 3.33636C8.93295 2.91723 9.26814 2.5762 9.68117 2.5762H40.3566C40.7696 2.5762 41.1048 2.91723 41.1048 3.33636V9.77256H8.93295V3.33636ZM19.0329 11.673L15.5954 24.5953H9.2696L16.4886 11.673H19.0329V11.673ZM20.9711 11.673H23.8443V24.5953H17.5331L20.9711 11.673ZM25.7143 11.673H28.5875L32.025 24.5953H25.7143V11.673ZM33.9632 24.5953L30.5257 11.673H33.0695L40.2885 24.5953H33.9632ZM2.77938 22.9331C2.25008 21.8769 2.69765 20.2221 4.00776 18.3929L8.81571 11.673H14.3378L7.11884 24.5953H7.11446C4.88879 24.5953 3.30868 23.9893 2.77938 22.9331ZM30.5777 47.424H20.1032V31.461H30.5777V47.424ZM41.853 47.424H32.4478V30.7008C32.4478 30.0702 31.9467 29.5606 31.325 29.5606H19.355C18.7337 29.5606 18.2326 30.0697 18.2326 30.7008V47.424H8.18425C7.77171 47.424 7.43603 47.0834 7.43603 46.6638V26.4957H42.6007V46.6638C42.6012 47.0834 42.2656 47.424 41.853 47.424ZM47.2584 22.9331C46.7286 23.9893 45.149 24.5953 42.9223 24.5953H42.4397L35.2203 11.673H41.2216L46.0305 18.3934C47.3401 20.2221 47.7877 21.8769 47.2584 22.9331Z" fill="#FBBC8F"/>
</svg>
