<svg width="24" height="24" viewBox="0 0 24 24" fill="none" xmlns="http://www.w3.org/2000/svg">
<path d="M17.9732 6.04684L3.33988 11.1234C2.8659 11.2878 2.89462 11.8933 3.38252 12.0216L7.10099 12.9991L8.48873 16.9192C8.63369 17.3287 9.21657 17.4529 9.55399 17.1461L11.4765 15.3986L15.2487 17.8636C15.7104 18.1652 16.3678 17.9411 16.485 17.4421L18.9834 6.80846C19.1057 6.28759 18.5301 5.85363 17.9732 6.04684ZM16.1385 8.40672L9.34146 13.7577C9.27371 13.811 9.23059 13.8848 9.22051 13.9649L8.95882 16.0358C8.95027 16.1034 8.8441 16.1123 8.82144 16.0474L7.74476 12.9589C7.69544 12.8174 7.75974 12.6642 7.90105 12.5862L15.9277 8.15443C16.1123 8.05243 16.3013 8.27865 16.1385 8.40672Z" fill="black"/>
</svg>
