<svg width="24" height="24" viewBox="0 0 24 24" fill="none" xmlns="http://www.w3.org/2000/svg">
<path fill-rule="evenodd" clip-rule="evenodd" d="M11.343 17.4535H12.3498C12.3498 17.4535 12.6539 17.4202 12.8092 17.2528C12.9521 17.0991 12.9475 16.8105 12.9475 16.8105C12.9475 16.8105 12.9278 15.4596 13.5548 15.2607C14.1729 15.0647 14.9666 16.5663 15.8078 17.1437C16.444 17.5807 16.9274 17.4849 16.9274 17.4849L19.1768 17.4535C19.1768 17.4535 20.3535 17.3811 19.7955 16.4559C19.7498 16.3802 19.4706 15.7715 18.1231 14.5207C16.7127 13.2116 16.9015 13.4234 18.6005 11.1589C19.6352 9.77983 20.0489 8.93789 19.9197 8.57728C19.7964 8.23383 19.0354 8.32461 19.0354 8.32461L16.5028 8.34039C16.5028 8.34039 16.315 8.31478 16.1758 8.39801C16.0397 8.47964 15.9521 8.66989 15.9521 8.66989C15.9521 8.66989 15.5513 9.73707 15.0167 10.6446C13.8889 12.5597 13.438 12.6608 13.2537 12.5419C12.8249 12.2647 12.9319 11.4285 12.9319 10.8344C12.9319 8.97859 13.2134 8.20479 12.3838 8.00448C12.1085 7.93794 11.9059 7.89404 11.2019 7.88695C10.2982 7.87757 9.53332 7.88969 9.10023 8.10189C8.81212 8.24298 8.58985 8.55739 8.72522 8.57546C8.89261 8.59786 9.27173 8.67767 9.47272 8.95138C9.73226 9.30443 9.72311 10.0974 9.72311 10.0974C9.72311 10.0974 9.8722 12.2821 9.37486 12.5535C9.03346 12.7396 8.56516 12.3596 7.55973 10.6222C7.04455 9.73226 6.65559 8.74855 6.65559 8.74855C6.65559 8.74855 6.58059 8.56471 6.44682 8.46638C6.28447 8.34725 6.05763 8.30929 6.05763 8.30929L3.65095 8.32507C3.65095 8.32507 3.28966 8.33513 3.15704 8.49222C3.03905 8.63194 3.14766 8.92097 3.14766 8.92097C3.14766 8.92097 5.03185 13.3291 7.16528 15.5506C9.1215 17.5873 11.343 17.4535 11.343 17.4535Z" fill="black"/>
</svg>
