<svg width="40" height="40" viewBox="0 0 40 40" fill="none" xmlns="http://www.w3.org/2000/svg">
<circle cx="20" cy="20" r="20" fill="white"/>
<path fill-rule="evenodd" clip-rule="evenodd" d="M19.7637 25.8668H21.0788C21.0788 25.8668 21.476 25.8254 21.6788 25.6178C21.8654 25.4272 21.8595 25.0694 21.8595 25.0694C21.8595 25.0694 21.8338 23.394 22.6527 23.1473C23.46 22.9042 24.4967 24.7665 25.5955 25.4825C26.4264 26.0244 27.0577 25.9056 27.0577 25.9056L29.9957 25.8668C29.9957 25.8668 31.5326 25.7769 30.8039 24.6295C30.7442 24.5357 30.3795 23.7808 28.6195 22.2296C26.7773 20.6061 27.024 20.8687 29.2431 18.0604C30.5945 16.3502 31.1348 15.306 30.9661 14.8588C30.8051 14.4329 29.8111 14.5455 29.8111 14.5455L26.5031 14.565C26.5031 14.565 26.2579 14.5333 26.076 14.6365C25.8983 14.7377 25.7839 14.9737 25.7839 14.9737C25.7839 14.9737 25.2604 16.2971 24.5621 17.4227C23.0891 19.7976 22.5001 19.923 22.2594 19.7755C21.6994 19.4318 21.8392 18.3948 21.8392 17.658C21.8392 15.3565 22.2068 14.3969 21.1233 14.1485C20.7637 14.0659 20.499 14.0115 19.5795 14.0027C18.3991 13.9911 17.4001 14.0061 16.8344 14.2693C16.4581 14.4442 16.1678 14.8342 16.3446 14.8566C16.5632 14.8844 17.0584 14.9833 17.321 15.3228C17.6599 15.7606 17.648 16.7441 17.648 16.7441C17.648 16.7441 17.8427 19.4534 17.1931 19.79C16.7472 20.0208 16.1355 19.5495 14.8223 17.3949C14.1494 16.2912 13.6414 15.0712 13.6414 15.0712C13.6414 15.0712 13.5434 14.8432 13.3687 14.7213C13.1567 14.5736 12.8604 14.5265 12.8604 14.5265L9.71694 14.546C9.71694 14.546 9.24505 14.5585 9.07182 14.7533C8.91771 14.9266 9.05957 15.285 9.05957 15.285C9.05957 15.285 11.5206 20.7519 14.3071 23.5068C16.8622 26.0327 19.7637 25.8668 19.7637 25.8668Z" fill="#292929"/>
</svg>
